<svg width="823" height="366" viewBox="0 0 823 366" fill="none" xmlns="http://www.w3.org/2000/svg">
<path d="M0 335.207C0 318.492 181.529 304.999 405.471 304.999C629.412 304.999 810.942 318.553 810.942 335.207C810.942 351.862 629.432 365.415 405.471 365.415C181.509 365.415 0 351.902 0 335.207Z" fill="#F89E02"/>
<path d="M550.468 247.93V226.986L699.897 40.0997H732.119L583.898 226.986L568.19 222.153H794.951V247.93H550.468ZM709.563 322.04V247.93L710.369 222.153V156.904H738.563V322.04H709.563Z" fill="#1C2541"/>
<path d="M550.468 247.93H536.371V262.027H550.468V247.93ZM550.468 226.986L539.458 218.183L536.371 222.043V226.986H550.468ZM699.897 40.0997V26.0027H693.119L688.887 31.2962L699.897 40.0997ZM732.119 40.0997L743.164 48.8595L761.291 26.0027H732.119V40.0997ZM583.898 226.986L579.753 240.46L588.958 243.292L594.943 235.746L583.898 226.986ZM568.19 222.153V208.056L564.045 235.626L568.19 222.153ZM794.951 222.153H809.048V208.056H794.951V222.153ZM794.951 247.93V262.027H809.048V247.93H794.951ZM709.563 322.04H695.466V336.137H709.563V322.04ZM709.563 247.93L695.473 247.49L695.466 247.71V247.93H709.563ZM710.369 222.153L724.459 222.593L724.466 222.373V222.153H710.369ZM710.369 156.904V142.807H696.272V156.904H710.369ZM738.563 156.904H752.66V142.807H738.563V156.904ZM738.563 322.04V336.137H752.66V322.04H738.563ZM564.565 247.93V226.986H536.371V247.93H564.565ZM561.479 235.79L710.907 48.9031L688.887 31.2962L539.458 218.183L561.479 235.79ZM699.897 54.1967H732.119V26.0027H699.897V54.1967ZM721.074 31.3399L572.853 218.226L594.943 235.746L743.164 48.8595L721.074 31.3399ZM588.044 213.512L572.336 208.679L564.045 235.626L579.753 240.46L588.044 213.512ZM568.19 236.25H794.951V208.056H568.19V236.25ZM780.854 222.153V247.93H809.048V222.153H780.854ZM794.951 233.833H550.468V262.027H794.951V233.833ZM723.66 322.04V247.93H695.466V322.04H723.66ZM723.654 248.371L724.459 222.593L696.279 221.712L695.473 247.49L723.654 248.371ZM724.466 222.153V156.904H696.272V222.153H724.466ZM710.369 171.001H738.563V142.807H710.369V171.001ZM724.466 156.904V322.04H752.66V156.904H724.466ZM738.563 307.943H709.563V336.137H738.563V307.943Z" fill="#1C2541"/>
<mask id="mask0_189_9376" style="mask-type:luminance" maskUnits="userSpaceOnUse" x="228" y="0" width="404" height="339">
<path d="M631.83 0H228.555V338.691H631.83V0Z" fill="white"/>
</mask>
<g mask="url(#mask0_189_9376)">
<path d="M565.635 331.723C640.435 256.923 640.435 135.647 565.635 60.8471C490.834 -13.9533 369.559 -13.9533 294.758 60.8471C219.958 135.647 219.958 256.923 294.758 331.723C369.559 406.524 490.834 406.524 565.635 331.723Z" fill="#5D5D5D"/>
<path d="M270.904 196.291C270.904 164.785 280.247 133.987 297.751 107.791C315.254 81.5945 340.133 61.1771 369.241 49.1203C398.348 37.0636 430.377 33.909 461.278 40.0555C492.178 46.202 520.562 61.3735 542.84 83.6515C565.118 105.929 580.29 134.313 586.436 165.214C592.583 196.114 589.428 228.144 577.371 257.251C565.315 286.359 544.897 311.237 518.701 328.741C492.505 346.245 461.707 355.587 430.201 355.587C409.281 355.59 388.565 351.472 369.238 343.467C349.91 335.463 332.348 323.729 317.555 308.937C302.763 294.144 291.029 276.582 283.025 257.254C275.02 237.926 270.902 217.211 270.904 196.291Z" fill="#4A4A4A"/>
<path d="M430.202 332.327C403.3 332.331 377.001 324.358 354.63 309.414C332.26 294.471 314.823 273.23 304.525 248.376C294.228 223.523 291.531 196.174 296.777 169.788C302.023 143.402 314.976 119.165 333.997 100.14C353.019 81.1161 377.254 68.1598 403.639 62.91C430.025 57.6601 457.374 60.3525 482.229 70.6467C507.084 80.9408 528.328 98.3743 543.274 120.743C558.221 143.111 566.198 169.409 566.198 196.311C566.156 232.368 551.815 266.937 526.32 292.435C500.826 317.933 466.26 332.279 430.202 332.327ZM430.202 62.6915C403.769 62.6875 377.929 70.5225 355.949 85.2055C333.968 99.8885 316.836 120.76 306.719 145.18C296.602 169.601 293.953 196.473 299.109 222.398C304.265 248.324 316.994 272.138 335.685 290.829C354.376 309.52 378.19 322.248 404.115 327.404C430.041 332.56 456.913 329.912 481.333 319.795C505.754 309.677 526.625 292.545 541.308 270.565C555.991 248.585 563.826 222.744 563.822 196.311C563.785 160.883 549.696 126.916 524.646 101.862C499.596 76.8082 465.631 62.714 430.202 62.6714V62.6915Z" fill="#767676"/>
<path d="M430.202 330.757C403.607 330.757 377.61 322.87 355.497 308.095C333.384 293.32 316.149 272.319 305.972 247.749C295.795 223.178 293.132 196.142 298.32 170.058C303.508 143.974 316.315 120.015 335.12 101.21C353.926 82.4042 377.885 69.5976 403.969 64.4093C430.053 59.2209 457.089 61.8837 481.66 72.0611C506.23 82.2385 527.231 99.4733 542.006 121.586C556.781 143.699 564.667 169.696 564.667 196.291C564.63 231.942 550.451 266.122 525.242 291.331C500.033 316.54 465.853 330.719 430.202 330.757ZM430.202 63.0338C403.841 63.0338 378.073 70.8509 356.155 85.4965C334.237 100.142 317.155 120.958 307.068 145.313C296.981 169.667 294.343 196.466 299.487 222.32C304.631 248.174 317.327 271.921 335.968 290.56C354.609 309.198 378.359 321.89 404.213 327.03C430.068 332.17 456.866 329.528 481.219 319.438C505.572 309.347 526.385 292.261 541.028 270.341C555.67 248.421 563.483 222.652 563.479 196.291C563.437 160.959 549.381 127.086 524.395 102.104C499.409 77.1221 465.534 63.0712 430.202 63.0338Z" fill="#3F3F3F"/>
<path d="M430.203 367.691C396.303 367.691 363.165 357.638 334.978 338.805C306.791 319.971 284.823 293.202 271.85 261.883C258.877 230.564 255.483 196.101 262.096 162.853C268.71 129.604 285.034 99.0639 309.005 75.0932C332.975 51.1225 363.516 34.7983 396.764 28.1848C430.012 21.5713 464.475 24.9656 495.794 37.9384C527.114 50.9112 553.883 72.88 572.716 101.067C591.55 129.253 601.602 162.391 601.602 196.291C601.549 241.733 583.474 285.298 551.342 317.43C519.209 349.562 475.644 367.638 430.203 367.691ZM430.203 27.3483C396.772 27.3483 364.092 37.2618 336.296 55.8352C308.5 74.4086 286.836 100.808 274.043 131.694C261.251 162.58 257.905 196.566 264.428 229.354C270.952 262.142 287.052 292.259 310.692 315.896C334.332 339.534 364.451 355.63 397.24 362.15C430.029 368.669 464.014 365.319 494.899 352.523C525.784 339.727 552.18 318.06 570.75 290.261C589.32 262.463 599.23 229.782 599.226 196.352C599.199 151.528 581.384 108.548 549.693 76.8491C518.002 45.1505 475.026 27.3252 430.203 27.2878V27.3483Z" fill="#767676"/>
<path d="M430.203 365.899C396.658 365.899 363.866 355.951 335.974 337.314C308.083 318.678 286.344 292.189 273.506 261.197C260.669 230.205 257.31 196.103 263.855 163.202C270.399 130.302 286.553 100.081 310.273 76.3605C333.993 52.6405 364.214 36.487 397.114 29.9426C430.015 23.3983 464.117 26.7571 495.109 39.5943C526.101 52.4315 552.59 74.1705 571.227 102.062C589.863 129.954 599.811 162.746 599.811 196.291C599.763 241.259 581.878 284.371 550.081 316.169C518.284 347.966 475.171 365.851 430.203 365.899ZM430.203 27.892C396.892 27.892 364.329 37.7701 336.632 56.2772C308.936 74.7842 287.349 101.089 274.602 131.865C261.856 162.64 258.521 196.505 265.022 229.176C271.522 261.846 287.564 291.856 311.12 315.409C334.676 338.962 364.687 355.001 397.359 361.497C430.03 367.993 463.894 364.655 494.668 351.904C525.443 339.154 551.745 317.564 570.248 289.865C588.752 262.166 598.626 229.602 598.622 196.291C598.569 151.642 580.807 108.837 549.233 77.2667C517.66 45.6967 474.853 27.94 430.203 27.892Z" fill="#3F3F3F"/>
<path d="M531.035 337.946L528.518 360.521L531.901 358.508L532.606 337.02L531.035 337.946Z" fill="#4A4A4A"/>
<path d="M552.484 318.714L554.015 342.276C556.895 339.839 559.714 337.281 562.473 334.643L557.579 313.619L552.484 318.714Z" fill="#4A4A4A"/>
<path d="M564.264 307.013L567.687 329.548C568.614 328.602 569.52 327.655 570.426 326.689L565.532 305.744L564.264 307.013Z" fill="#4A4A4A"/>
<path d="M580.076 282.867L587.668 305.241C589.803 302.119 591.877 298.938 593.851 295.655L583.681 276.624L580.076 282.867Z" fill="#4A4A4A"/>
<path d="M588.352 268.528L597.495 289.432L599.388 285.948L589.318 266.978L588.352 268.528Z" fill="#4A4A4A"/>
<path d="M597.375 241.12L610.485 260.775C611.747 257.204 612.922 253.585 614.009 249.92L599.248 234.172L597.375 241.12Z" fill="#4A4A4A"/>
<path d="M601.662 225.15L615.9 242.952C616.222 241.663 616.524 240.395 616.826 239.106L602.125 223.398L601.662 225.15Z" fill="#4A4A4A"/>
<path d="M603.275 196.331L621.038 211.919C621.34 208.133 621.541 204.347 621.622 200.52L603.275 189.122V196.331Z" fill="#4A4A4A"/>
<path d="M603.275 179.777L621.642 193.29C621.642 191.981 621.642 190.652 621.642 189.263L603.376 177.905L603.275 179.777Z" fill="#4A4A4A"/>
<path d="M597.394 151.523L618.58 161.995C617.896 158.263 617.097 154.537 616.184 150.818L595.521 144.555L597.394 151.523Z" fill="#4A4A4A"/>
<path d="M593.102 135.553L614.348 143.85C613.986 142.581 613.603 141.313 613.22 140.044L592.639 133.801L593.102 135.553Z" fill="#4A4A4A"/>
<path d="M580.093 109.776L603.273 114.387C601.635 110.991 599.903 107.634 598.077 104.318L576.488 103.613L580.093 109.776Z" fill="#4A4A4A"/>
<path d="M571.816 95.457L594.492 97.9743C593.807 96.8466 593.123 95.7188 592.478 94.591L570.99 93.9063L571.816 95.457Z" fill="#4A4A4A"/>
<path d="M552.607 73.9288L576.169 72.3983C573.732 69.5185 571.175 66.6991 568.536 63.92L547.512 68.8338L552.607 73.9288Z" fill="#4A4A4A"/>
<path d="M540.905 62.2283L563.441 58.8048C562.494 57.8784 561.548 56.9722 560.561 56.0659L539.637 60.9596L540.905 62.2283Z" fill="#4A4A4A"/>
<path d="M516.759 46.3591L539.133 38.7669C536.011 36.6322 532.829 34.5579 529.547 32.5843L510.516 42.7543L516.759 46.3591Z" fill="#4A4A4A"/>
<path d="M502.422 38.1426L523.326 28.9996L519.842 27.1066L500.871 37.1759L502.422 38.1426Z" fill="#4A4A4A"/>
<path d="M475.011 29.1205L494.666 16.0102C491.095 14.7482 487.477 13.5802 483.811 12.5061L468.043 27.2476L475.011 29.1205Z" fill="#4A4A4A"/>
<path d="M459.021 24.8309L476.844 10.5929L472.997 9.66656L457.289 24.3678L459.021 24.8309Z" fill="#4A4A4A"/>
<path d="M430.223 23.2198L445.811 5.4576C442.025 5.15552 438.238 4.95411 434.412 4.87356L423.014 23.2198H430.223Z" fill="#4A4A4A"/>
<path d="M413.67 23.2198L427.183 4.8534L423.155 4.9541L411.797 23.2198H413.67Z" fill="#4A4A4A"/>
<path d="M385.335 29.1003L395.807 7.91451C392.074 8.59923 388.355 9.39806 384.65 10.311L378.387 30.9732L385.335 29.1003Z" fill="#4A4A4A"/>
<path d="M369.443 33.3899L377.741 12.1235L373.934 13.2512L367.691 33.8329L369.443 33.3899Z" fill="#4A4A4A"/>
<path d="M343.669 46.3591L348.301 23.1796C344.877 24.8108 341.494 26.5226 338.131 28.3753L337.426 49.9639L343.669 46.3591Z" fill="#4A4A4A"/>
<path d="M329.348 54.6562L331.865 32.0003L328.482 34.0141L327.777 55.502L329.348 54.6562Z" fill="#4A4A4A"/>
<path d="M307.821 73.8886L306.29 50.3264C303.41 52.7632 300.591 55.3208 297.832 57.9589L302.766 78.9837L307.821 73.8886Z" fill="#4A4A4A"/>
<path d="M296.119 85.5891L292.696 63.054C291.77 64.0005 290.863 64.947 289.957 65.9338L294.851 86.8578L296.119 85.5891Z" fill="#4A4A4A"/>
<path d="M280.31 109.735L272.738 87.3613C270.583 90.4828 268.509 93.6646 266.535 96.9472L276.705 115.978L280.31 109.735Z" fill="#4A4A4A"/>
<path d="M272.032 124.074L262.889 103.17L260.996 106.654L271.065 125.625L272.032 124.074Z" fill="#4A4A4A"/>
<path d="M263.011 151.483L249.901 131.827C248.632 135.392 247.464 138.997 246.396 142.682L261.138 158.451L263.011 151.483Z" fill="#4A4A4A"/>
<path d="M258.721 167.453L244.483 149.65C244.161 150.939 243.859 152.208 243.557 153.517L258.258 169.205L258.721 167.453Z" fill="#4A4A4A"/>
<path d="M257.112 196.271L239.35 180.704C239.048 184.47 238.846 188.256 238.766 192.082L257.112 203.48V196.271Z" fill="#4A4A4A"/>
<path d="M257.112 212.825L238.746 199.292C238.746 200.621 238.746 201.95 238.746 203.319L257.012 214.678L257.112 212.825Z" fill="#4A4A4A"/>
<path d="M262.992 241.079L241.826 230.607C242.491 234.333 243.296 238.059 244.203 241.764L264.865 248.047L262.992 241.079Z" fill="#4A4A4A"/>
<path d="M267.281 257.049L246.055 248.752C246.397 250.021 246.78 251.29 247.162 252.558L267.744 258.801L267.281 257.049Z" fill="#4A4A4A"/>
<path d="M280.291 282.827L257.111 278.195C258.722 281.618 260.474 285.002 262.307 288.365L283.876 289.07L280.291 282.827Z" fill="#4A4A4A"/>
<path d="M288.668 297.145L265.992 294.628C266.677 295.756 267.362 296.883 268.006 298.011L289.494 298.716L288.668 297.145Z" fill="#4A4A4A"/>
<path d="M307.781 318.673L284.219 320.204C286.656 323.084 289.213 325.903 291.851 328.662L312.836 323.768L307.781 318.673Z" fill="#4A4A4A"/>
<path d="M319.478 330.314L296.943 333.737C297.89 334.664 298.857 335.57 299.823 336.476L320.747 331.582L319.478 330.314Z" fill="#4A4A4A"/>
<path d="M299.303 196.291C299.303 170.401 306.98 145.093 321.364 123.566C335.747 102.04 356.191 85.2619 380.11 75.3543C404.029 65.4467 430.349 62.8544 455.741 67.9053C481.134 72.9561 504.458 85.4232 522.765 103.73C541.072 122.037 553.539 145.361 558.589 170.754C563.64 196.146 561.048 222.466 551.141 246.385C541.233 270.304 524.455 290.748 502.928 305.131C481.402 319.515 456.093 327.192 430.204 327.192C395.487 327.192 362.191 313.401 337.643 288.852C313.094 264.303 299.303 231.008 299.303 196.291Z" fill="#2A2A2A"/>
<path d="M429.943 48.373C427.929 52.4007 426.298 55.9451 425.674 57.5965C426.62 56.1062 428.453 52.6827 430.467 48.6348C432.481 44.5869 434.092 41.0627 434.716 39.4314C433.79 40.9821 431.957 44.3453 429.943 48.373Z" fill="#5D5D5D"/>
<path d="M420.658 48.7355C418.906 52.9042 417.496 56.5291 416.973 58.2208C417.818 56.6701 419.45 53.1458 421.202 48.9771C422.954 44.8085 424.343 41.2036 424.867 39.512C424.021 41.0627 422.41 44.5869 420.658 48.7355Z" fill="#5D5D5D"/>
<path d="M411.515 49.6417C410.025 53.9111 408.857 57.6971 408.434 59.3082C409.179 57.7173 410.588 54.0923 412.059 49.8431C413.529 45.5938 414.717 41.7876 415.14 40.1564C414.294 41.7473 412.904 45.3723 411.515 49.6417Z" fill="#5D5D5D"/>
<path d="M402.228 51.1118C401.02 55.4617 400.094 59.1672 399.771 60.9596C400.416 59.3082 401.584 55.6229 402.792 51.2729C404.001 46.923 404.947 43.2175 405.249 41.4251C404.625 43.0564 403.457 46.7619 402.228 51.1118Z" fill="#5D5D5D"/>
<path d="M393.169 53.1458C392.222 57.5763 391.537 61.3825 391.336 63.2151C391.88 61.5436 392.806 57.7777 393.753 53.3472C394.699 48.9167 395.384 45.1307 395.585 43.2779C395.041 44.9696 394.115 48.7355 393.169 53.1458Z" fill="#5D5D5D"/>
<path d="M384.267 55.7638C383.602 60.2346 383.139 64.0811 383.059 65.8331C383.502 64.1213 384.186 60.295 384.851 55.7638C385.516 51.2326 385.959 47.4466 386.039 45.6945C385.616 47.4667 384.931 51.293 384.267 55.7638Z" fill="#5D5D5D"/>
<path d="M375.526 58.9256C375.144 63.4366 374.942 67.2831 374.962 68.9949C375.285 67.263 375.728 63.4165 376.11 58.9256C376.493 54.4347 376.714 50.5681 376.674 48.8563C376.352 50.5681 375.909 54.4145 375.526 58.9256Z" fill="#5D5D5D"/>
<path d="M367.01 62.6311C366.909 67.1422 367.01 71.0289 367.01 72.7004C367.231 70.9484 367.453 67.0818 367.533 62.6311C367.614 58.1805 367.533 54.2333 367.533 52.4611C367.312 54.2333 367.211 58.1201 367.01 62.6311Z" fill="#5D5D5D"/>
<path d="M358.73 66.8602C358.931 71.3713 359.213 75.2379 359.434 76.9295C359.555 75.1774 359.434 71.2907 359.434 66.8602C359.434 62.4297 358.971 58.4825 358.73 56.7909C358.508 58.4423 358.548 62.3492 358.73 66.8602Z" fill="#5D5D5D"/>
<path d="M350.757 71.6129C351.221 76.1038 351.744 79.9301 352.107 81.6822C352.107 79.9301 351.805 76.0635 351.341 71.6129C350.878 67.1623 350.355 63.2755 349.992 61.5436C350.012 63.2352 350.294 67.1018 350.757 71.6129Z" fill="#5D5D5D"/>
<path d="M343.044 76.8489C343.789 81.2996 344.554 85.1058 345.058 86.7974C344.937 85.0453 344.413 81.1989 343.668 76.7281C342.923 72.2573 342.158 68.4713 341.654 66.6588C341.815 68.5115 342.339 72.3781 343.044 76.8489Z" fill="#5D5D5D"/>
<path d="M335.754 82.6086C336.781 86.9988 337.768 90.664 338.352 92.4161C338.13 90.664 337.365 86.878 336.338 82.4676C335.311 78.0573 334.324 74.4122 333.74 72.6601C333.962 74.3518 334.727 78.158 335.754 82.6086Z" fill="#5D5D5D"/>
<path d="M328.806 88.6502C330.115 92.9598 331.323 96.7056 332.008 98.2764C331.666 96.5445 330.659 92.7987 329.37 88.4689C328.081 84.1391 326.833 80.4135 326.168 78.8427C326.49 80.5947 327.497 84.3808 328.806 88.6502Z" fill="#5D5D5D"/>
<path d="M322.24 95.2757C323.811 99.5049 325.281 103.11 326.047 104.701C325.604 102.989 324.375 99.3035 322.804 95.0744C321.233 90.8453 319.763 87.2606 318.998 85.6696C319.441 87.3814 320.67 91.0466 322.24 95.2757Z" fill="#5D5D5D"/>
<path d="M316.118 102.264C317.951 106.392 319.642 109.876 320.508 111.427C319.964 109.735 318.494 106.151 316.662 102.022C314.829 97.8937 313.137 94.3896 312.271 92.8591C312.835 94.5507 314.285 98.1354 316.118 102.264Z" fill="#5D5D5D"/>
<path d="M310.436 109.614C312.45 113.642 314.464 116.985 315.39 118.475C314.746 116.844 313.054 113.34 310.96 109.333C308.866 105.325 306.932 101.962 306.006 100.472C306.65 102.123 308.342 105.607 310.436 109.614Z" fill="#5D5D5D"/>
<path d="M305.243 117.307C307.559 121.174 309.674 124.416 310.741 125.846C309.976 124.235 308.083 120.872 305.746 116.985C303.41 113.098 301.296 109.876 300.229 108.467C300.994 110.057 302.887 113.441 305.243 117.307Z" fill="#5D5D5D"/>
<path d="M300.511 125.302C303.089 129.008 305.404 132.129 306.552 133.479C305.686 131.928 303.572 128.686 301.014 124.96C298.457 121.234 296.121 118.133 294.973 116.784C295.839 118.334 297.953 121.597 300.511 125.302Z" fill="#5D5D5D"/>
<path d="M296.323 133.6C299.122 137.124 301.619 140.104 302.848 141.373C301.901 139.883 299.585 136.761 296.806 133.217C294.027 129.673 291.49 126.712 290.281 125.443C291.208 126.914 293.524 130.055 296.323 133.6Z" fill="#5D5D5D"/>
<path d="M292.697 142.118C295.717 145.481 298.376 148.281 299.685 149.489C298.638 148.059 296.14 145.079 293.14 141.715C290.139 138.352 287.42 135.674 286.111 134.365C287.118 135.795 289.636 138.755 292.697 142.118Z" fill="#5D5D5D"/>
<path d="M289.513 150.858C292.736 154.02 295.555 156.658 296.965 157.766C295.837 156.417 293.138 153.617 289.936 150.435C286.734 147.254 283.895 144.656 282.465 143.548C283.613 144.897 286.291 147.717 289.513 150.858Z" fill="#5D5D5D"/>
<path d="M286.935 159.8C290.358 162.74 293.359 165.197 294.809 166.224C293.601 164.935 290.781 162.196 287.338 159.337C283.894 156.477 280.893 153.94 279.443 152.912C280.611 154.201 283.532 156.839 286.935 159.8Z" fill="#5D5D5D"/>
<path d="M284.924 168.862C288.528 171.581 291.69 173.836 293.201 174.783C291.912 173.555 288.871 171.118 285.286 168.379C281.701 165.64 278.54 163.405 277.029 162.478C278.318 163.687 281.339 166.123 284.924 168.862Z" fill="#5D5D5D"/>
<path d="M283.492 178.045C287.258 180.522 290.54 182.577 292.111 183.422C290.742 182.295 287.58 180.039 283.834 177.542C280.088 175.045 276.766 172.991 275.215 172.165C276.584 173.232 279.746 175.548 283.492 178.045Z" fill="#5D5D5D"/>
<path d="M282.628 187.329C286.535 189.585 289.938 191.357 291.569 192.163C290.119 191.115 286.817 189.081 282.93 186.806C279.043 184.53 275.579 182.778 273.988 181.993C275.438 182.979 278.741 185.034 282.628 187.329Z" fill="#5D5D5D"/>
<path d="M282.364 196.573C286.392 198.587 289.936 200.198 291.588 200.842C290.097 199.876 286.674 198.063 282.626 196.029C278.578 193.995 275.054 192.404 273.402 191.78C274.913 192.726 278.336 194.559 282.364 196.573Z" fill="#5D5D5D"/>
<path d="M282.626 205.857C286.795 207.609 290.419 208.998 292.111 209.522C290.56 208.676 287.016 207.065 282.867 205.293C278.719 203.521 275.074 202.151 273.402 201.628C274.993 202.474 278.598 204.105 282.626 205.857Z" fill="#5D5D5D"/>
<path d="M283.551 215.101C287.82 216.591 291.607 217.759 293.258 218.162C291.647 217.416 288.022 216.027 283.773 214.537C279.523 213.046 275.717 211.878 274.086 211.476C275.677 212.221 279.322 213.61 283.551 215.101Z" fill="#5D5D5D"/>
<path d="M285.045 224.264C289.395 225.492 293.1 226.418 294.892 226.72C293.241 226.076 289.536 224.928 285.206 223.7C280.876 222.471 277.15 221.545 275.338 221.243C276.989 221.887 280.715 223.055 285.045 224.264Z" fill="#5D5D5D"/>
<path d="M287.077 233.326C291.487 234.273 295.314 234.957 297.146 235.159C295.475 234.615 291.689 233.688 287.278 232.742C282.868 231.795 279.042 231.111 277.209 230.909C278.901 231.453 282.626 232.4 287.077 233.326Z" fill="#5D5D5D"/>
<path d="M289.694 242.247C294.145 242.892 298.012 243.355 299.764 243.456C298.032 242.993 294.205 242.328 289.694 241.643C285.183 240.959 281.377 240.556 279.625 240.455C281.397 240.898 285.244 241.583 289.694 242.247Z" fill="#5D5D5D"/>
<path d="M292.859 250.988C297.35 251.35 301.237 251.572 302.929 251.531C301.197 251.209 297.33 250.766 292.859 250.383C288.389 250.001 284.462 249.799 282.689 249.819C284.502 250.142 288.369 250.605 292.859 250.988Z" fill="#5D5D5D"/>
<path d="M296.561 259.486C301.073 259.587 304.959 259.486 306.631 259.486C304.879 259.264 300.992 259.063 296.561 258.942C292.131 258.821 288.164 258.942 286.492 258.942C288.164 259.184 292.05 259.405 296.561 259.486Z" fill="#5D5D5D"/>
<path d="M300.751 267.763C305.262 267.562 309.129 267.3 310.82 267.058C309.048 266.937 305.181 267.058 300.751 267.159C296.32 267.26 292.373 267.642 290.682 267.884C292.393 267.985 296.3 267.884 300.751 267.763Z" fill="#5D5D5D"/>
<path d="M305.526 275.758C310.017 275.275 313.864 274.751 315.596 274.409C313.823 274.409 309.937 274.691 305.526 275.154C301.116 275.617 297.209 276.161 295.457 276.503C297.169 276.503 301.056 276.221 305.526 275.758Z" fill="#5D5D5D"/>
<path d="M310.819 283.431C315.269 282.666 319.076 281.9 320.787 281.417C319.035 281.538 315.169 282.061 310.718 282.807C306.267 283.552 302.481 284.337 300.77 284.82C302.481 284.679 306.328 284.176 310.819 283.431Z" fill="#5D5D5D"/>
<path d="M316.478 290.761C320.869 289.714 324.534 288.747 326.306 288.143C324.534 288.385 320.728 289.15 316.337 290.157C311.947 291.164 308.282 292.171 306.51 292.755C308.282 292.534 312.088 291.768 316.478 290.761Z" fill="#5D5D5D"/>
<path d="M322.622 297.709C326.952 296.4 330.677 295.172 332.268 294.487C330.536 294.829 326.77 295.836 322.461 297.125C318.151 298.414 314.405 299.683 312.814 300.347C314.567 300.106 318.332 298.998 322.622 297.709Z" fill="#5D5D5D"/>
<path d="M329.206 304.254C333.435 302.683 337.04 301.233 338.631 300.448C336.919 300.891 333.234 302.14 329.005 303.69C324.776 305.241 321.171 306.751 319.58 307.496C321.292 307.053 324.917 305.825 329.206 304.254Z" fill="#5D5D5D"/>
<path d="M336.194 310.396C340.222 308.544 343.806 306.872 345.357 305.986C343.665 306.55 340.081 308 335.952 309.833C331.824 311.665 328.32 313.377 326.789 314.223C328.461 313.679 332.086 312.189 336.194 310.396Z" fill="#5D5D5D"/>
<path d="M343.527 316.075C347.555 314.062 350.918 312.048 352.408 311.101C350.757 311.766 347.273 313.457 343.265 315.532C339.258 317.606 335.895 319.559 334.404 320.486C336.036 319.841 339.56 318.23 343.527 316.075Z" fill="#5D5D5D"/>
<path d="M393.711 339.557C396.671 336.154 399.128 333.133 400.135 331.683C398.846 332.911 396.228 335.711 393.268 339.175C390.308 342.638 387.871 345.599 386.844 347.049C388.133 345.84 390.791 342.961 393.711 339.557Z" fill="#5D5D5D"/>
<path d="M402.794 341.571C405.513 337.986 407.768 334.825 408.695 333.314C407.486 334.603 405.05 337.624 402.311 341.209C399.572 344.793 397.337 347.975 396.41 349.465C397.598 348.177 400.075 345.156 402.794 341.571Z" fill="#5D5D5D"/>
<path d="M411.959 343.021C414.476 339.255 416.51 335.952 417.356 334.381C416.228 335.751 413.972 338.913 411.455 342.679C408.938 346.445 406.924 349.747 406.078 351.278C407.206 349.929 409.502 346.747 411.959 343.021Z" fill="#5D5D5D"/>
<path d="M421.22 343.867C423.476 339.96 425.248 336.536 426.033 334.925C425.006 336.355 422.952 339.658 420.697 343.565C418.441 347.472 416.669 350.895 415.863 352.506C416.89 351.056 418.965 347.754 421.22 343.867Z" fill="#5D5D5D"/>
<path d="M430.506 344.149C432.52 340.121 434.131 336.577 434.756 334.905C433.809 336.415 431.977 339.819 429.963 343.867C427.949 347.915 426.358 351.439 425.693 353.09C426.64 351.6 428.493 348.156 430.506 344.149Z" fill="#5D5D5D"/>
<path d="M439.708 343.827C441.46 339.658 442.849 336.053 443.373 334.361C442.527 335.912 440.916 339.436 439.144 343.585C437.372 347.733 436.022 351.379 435.479 353.07C436.405 351.499 438.036 347.975 439.708 343.827Z" fill="#5D5D5D"/>
<path d="M449.032 342.94C450.522 338.671 451.69 334.986 452.093 333.254C451.348 334.865 449.958 338.47 448.448 342.739C446.937 347.008 445.83 350.794 445.387 352.426C446.132 350.815 447.542 347.19 449.032 342.94Z" fill="#5D5D5D"/>
<path d="M458.195 341.47C459.403 337.12 460.349 333.415 460.652 331.602C460.007 333.254 458.839 336.959 457.611 341.309C456.382 345.659 455.496 349.365 455.174 351.157C455.818 349.506 456.986 345.8 458.195 341.47Z" fill="#5D5D5D"/>
<path d="M524.692 310.034C523.645 305.644 522.678 301.878 522.074 300.206C522.316 301.958 523.081 305.765 524.088 310.155C525.095 314.545 526.102 318.311 526.686 319.982C526.464 318.23 525.699 314.404 524.692 310.034Z" fill="#5D5D5D"/>
<path d="M531.642 303.871C530.333 299.542 529.105 295.816 528.42 294.225C528.762 295.977 529.769 299.723 531.058 304.053C532.347 308.383 533.616 312.108 534.26 313.679C533.938 311.947 532.931 308.161 531.642 303.871Z" fill="#5D5D5D"/>
<path d="M538.205 297.286C536.614 293.057 535.164 289.472 534.379 287.861C534.822 289.593 536.071 293.258 537.621 297.508C539.172 301.757 540.682 305.321 541.427 306.912C540.984 305.201 539.756 301.515 538.205 297.286Z" fill="#5D5D5D"/>
<path d="M544.43 290.318C542.577 286.19 540.906 282.706 540.02 281.155C540.583 282.847 542.033 286.431 543.866 290.56C545.699 294.688 547.41 298.172 548.256 299.723C547.612 298.092 546.142 294.427 544.43 290.318Z" fill="#5D5D5D"/>
<path d="M550.007 282.968C547.994 278.94 545.98 275.577 545.033 274.086C545.698 275.758 547.389 279.242 549.464 283.229C551.538 287.217 553.491 290.62 554.418 292.111C553.753 290.459 552.082 286.935 550.007 282.968Z" fill="#5D5D5D"/>
<path d="M555.222 275.275C552.865 271.408 550.771 268.146 549.684 266.736C550.449 268.347 552.362 271.71 554.678 275.577C556.994 279.443 559.169 282.686 560.196 284.116C559.431 282.525 557.518 279.121 555.222 275.275Z" fill="#5D5D5D"/>
<path d="M559.938 267.26C557.34 263.554 555.044 260.433 553.896 259.083C554.762 260.654 556.877 263.896 559.435 267.602C561.992 271.307 564.348 274.429 565.476 275.778C564.57 274.228 562.556 270.945 559.938 267.26Z" fill="#5D5D5D"/>
<path d="M564.127 258.982C561.308 255.438 558.831 252.478 557.582 251.209C558.549 252.699 560.865 255.801 563.624 259.264C566.383 262.728 568.96 265.749 570.149 267.038C569.222 265.628 566.906 262.507 564.127 258.982Z" fill="#5D5D5D"/>
<path d="M567.788 250.444C564.767 247.101 562.089 244.402 560.76 243.093C561.827 244.523 564.324 247.483 567.325 250.847C570.326 254.21 573.064 256.888 574.353 258.217C573.306 256.767 570.789 253.787 567.788 250.444Z" fill="#5D5D5D"/>
<path d="M570.932 241.704C567.69 238.542 564.891 235.924 563.461 234.816C564.609 236.165 567.287 238.965 570.489 242.147C573.691 245.329 576.531 247.906 577.961 249.034C576.813 247.745 574.134 244.845 570.932 241.704Z" fill="#5D5D5D"/>
<path d="M573.508 232.782C570.084 229.822 567.083 227.385 565.613 226.378C566.842 227.647 569.641 230.265 573.085 233.245C576.528 236.226 579.549 238.602 580.959 239.65C579.751 238.361 576.891 235.662 573.508 232.782Z" fill="#5D5D5D"/>
<path d="M575.524 223.7C571.919 220.981 568.757 218.726 567.227 217.799C568.536 219.007 571.556 221.444 575.121 224.183C578.685 226.922 581.908 229.157 583.398 230.104C582.109 228.895 579.068 226.439 575.524 223.7Z" fill="#5D5D5D"/>
<path d="M576.95 214.537C573.184 212.039 569.881 209.985 568.311 209.16C569.68 210.287 572.842 212.523 576.588 215.04C580.333 217.557 583.676 219.571 585.207 220.417C583.858 219.289 580.676 217.034 576.95 214.537Z" fill="#5D5D5D"/>
<path d="M577.8 205.273C573.893 203.017 570.489 201.245 568.838 200.46C570.308 201.507 573.591 203.541 577.477 205.817C581.364 208.092 584.828 209.844 586.419 210.63C584.989 209.603 581.686 207.468 577.8 205.273Z" fill="#5D5D5D"/>
<path d="M578.082 195.989C574.054 193.975 570.509 192.364 568.838 191.76C570.348 192.686 573.772 194.519 577.8 196.553C581.827 198.587 585.372 200.138 587.023 200.802C585.513 199.856 582.089 198.003 578.082 195.989Z" fill="#5D5D5D"/>
<path d="M577.757 186.705C573.608 184.973 569.983 183.563 568.271 183.06C569.842 183.906 573.367 185.517 577.515 187.289C581.664 189.061 585.309 190.39 587 190.954C585.45 190.088 581.905 188.457 577.757 186.705Z" fill="#5D5D5D"/>
<path d="M576.873 177.461C572.603 175.991 568.918 174.823 567.166 174.42C568.797 175.166 572.402 176.535 576.651 178.045C580.901 179.556 584.707 180.663 586.358 181.107C584.707 180.361 581.102 178.952 576.873 177.461Z" fill="#5D5D5D"/>
<path d="M575.403 168.298C571.053 167.09 567.348 166.164 565.535 165.862C567.187 166.506 570.892 167.654 575.222 168.882C579.552 170.111 583.277 170.997 585.09 171.339C583.438 170.695 579.713 169.527 575.403 168.298Z" fill="#5D5D5D"/>
<path d="M573.37 159.236C568.94 158.289 565.133 157.605 563.301 157.423C565.013 157.947 568.778 158.873 573.169 159.84C577.559 160.807 581.426 161.431 583.238 161.673C581.526 161.149 577.74 160.182 573.37 159.236Z" fill="#5D5D5D"/>
<path d="M570.749 150.315C566.278 149.67 562.432 149.207 560.68 149.147C562.412 149.569 566.238 150.254 570.749 150.939C575.26 151.624 579.066 152.006 580.818 152.127C579.026 151.684 575.179 151.08 570.749 150.315Z" fill="#5D5D5D"/>
<path d="M567.59 141.574C563.099 141.212 559.212 141.011 557.42 141.051C559.192 141.353 563.039 141.796 567.489 142.199C571.94 142.601 575.867 142.763 577.559 142.763C575.927 142.44 572.061 141.977 567.59 141.574Z" fill="#5D5D5D"/>
<path d="M563.881 133.056C559.37 133.056 555.483 133.056 553.711 133.056C555.483 133.277 559.35 133.459 563.78 133.579C568.211 133.7 572.198 133.579 573.95 133.579C572.259 133.398 568.372 133.177 563.881 133.056Z" fill="#5D5D5D"/>
<path d="M559.634 124.9C555.143 125.101 551.276 125.363 549.564 125.645C551.337 125.645 555.223 125.645 559.634 125.524C564.044 125.403 568.032 125.02 569.703 124.799C568.032 124.598 564.125 124.638 559.634 124.9Z" fill="#5D5D5D"/>
<path d="M554.903 116.844C550.412 117.328 546.566 117.851 544.834 118.214C546.606 118.214 550.473 117.912 554.903 117.469C559.334 117.025 563.241 116.441 564.973 116.119C563.261 116.079 559.374 116.361 554.903 116.844Z" fill="#5D5D5D"/>
<path d="M549.663 109.131C545.212 109.896 541.406 110.662 539.594 111.145C541.366 111.004 545.212 110.48 549.663 109.755C554.114 109.03 557.92 108.205 559.732 107.742C557.96 107.883 554.094 108.406 549.663 109.131Z" fill="#5D5D5D"/>
<path d="M543.966 101.801C539.576 102.848 535.911 103.815 534.139 104.439C535.891 104.197 539.697 103.432 544.087 102.425C548.477 101.418 552.143 100.411 553.915 99.8271C552.163 100.049 548.336 100.733 543.966 101.801Z" fill="#5D5D5D"/>
<path d="M537.803 94.8528C533.493 96.1618 529.747 97.3903 528.156 98.0951C529.908 97.7528 533.654 96.7257 537.964 95.457C542.273 94.1883 546.019 92.8792 547.61 92.2348C545.878 92.6779 542.092 93.564 537.803 94.8528Z" fill="#5D5D5D"/>
<path d="M531.215 88.2877C526.986 89.8786 523.401 91.3487 521.811 92.1341C523.522 91.6709 527.188 90.4223 531.417 88.8918C535.646 87.3613 539.251 85.8106 540.842 85.0856C539.13 85.5085 535.424 86.7571 531.215 88.2877Z" fill="#5D5D5D"/>
<path d="M524.291 82.1655C520.264 84.0183 516.679 85.6898 515.148 86.596C516.84 86.0321 520.425 84.5822 524.553 82.7495C528.682 80.9169 532.166 79.185 533.716 78.3593C531.964 78.8829 528.319 80.353 524.291 82.1655Z" fill="#5D5D5D"/>
<path d="M516.879 76.567C512.851 78.5809 509.508 80.5947 508.018 81.5614C509.669 80.8968 513.153 79.185 517.16 77.1309C521.168 75.0768 524.531 73.1032 526.042 72.1768C524.39 72.7206 520.866 74.4323 516.879 76.567Z" fill="#5D5D5D"/>
<path d="M509.185 71.2907C505.338 73.6268 502.076 75.7413 500.666 76.8288C502.257 76.0434 505.64 74.1302 509.507 71.8344C513.374 69.5386 516.616 67.3435 518.046 66.3165C516.435 67.0616 513.051 68.9748 509.185 71.2907Z" fill="#5D5D5D"/>
<path d="M501.192 66.4977C497.486 69.0755 494.365 71.3713 493.016 72.5393C494.566 71.6532 497.829 69.5386 501.534 67.0012C505.24 64.4637 508.341 62.0672 509.711 60.9596C508.18 61.9061 504.897 64.0207 501.192 66.4977Z" fill="#5D5D5D"/>
<path d="M492.894 62.47C489.37 65.2894 486.409 67.7865 485.141 69.0351C486.631 68.0685 489.732 65.7525 493.297 62.9936C496.861 60.2346 499.781 57.6568 501.07 56.4485C499.56 57.2742 496.438 59.5901 492.894 62.47Z" fill="#5D5D5D"/>
<path d="M484.358 58.7041C481.035 61.7249 478.216 64.4033 477.027 65.7325C478.457 64.6651 481.418 62.1679 484.781 59.1673C488.144 56.1666 490.923 53.4278 492.151 52.159C490.701 53.1861 487.721 55.7034 484.358 58.7041Z" fill="#5D5D5D"/>
<path d="M475.613 55.5625C472.472 58.8048 469.834 61.604 468.746 63.054C470.095 61.9061 472.895 59.2076 476.077 56.0257C479.258 52.8438 481.836 49.9841 482.964 48.5542C481.595 49.682 478.775 52.4007 475.613 55.5625Z" fill="#5D5D5D"/>
<path d="M466.695 53.0049C463.755 56.4284 461.318 59.4291 460.291 60.8992C461.58 59.6506 464.198 56.8715 467.178 53.4278C470.159 49.9841 472.535 46.9633 473.603 45.5334C472.294 46.7417 469.655 49.6216 466.695 53.0049Z" fill="#5D5D5D"/>
<path d="M457.632 50.991C454.914 54.5958 452.658 57.7576 451.752 59.2881C452.94 57.959 455.377 54.9382 458.136 51.3736C460.895 47.8091 463.07 44.5869 464.036 43.0967C462.808 44.3453 460.351 47.4265 457.632 50.991Z" fill="#5D5D5D"/>
<path d="M448.447 49.5611C445.97 53.327 443.916 56.6097 443.09 58.2006C444.218 56.811 446.453 53.6493 448.97 49.9035C451.488 46.1577 453.481 42.8348 454.347 41.2842C453.22 42.6334 450.944 45.8355 448.447 49.5611Z" fill="#5D5D5D"/>
<path d="M439.202 48.6952C436.966 52.6021 435.174 56.0257 434.389 57.6569C435.416 56.1868 437.45 52.9042 439.746 49.0174C442.041 45.1307 443.773 41.6668 444.579 40.0759C443.512 41.5057 441.457 44.8286 439.202 48.6952Z" fill="#5D5D5D"/>
<path d="M430.204 327.192C456.093 327.192 481.402 319.515 502.928 305.131C524.455 290.748 541.233 270.304 551.141 246.385C561.048 222.466 563.64 196.146 558.589 170.754C553.539 145.361 541.072 122.037 522.765 103.73C504.458 85.4232 481.134 72.9561 455.741 67.9053C430.349 62.8544 404.029 65.4467 380.11 75.3543C356.191 85.2619 335.747 102.04 321.364 123.566C306.98 145.093 299.303 170.401 299.303 196.291C299.303 231.008 313.094 264.303 337.643 288.852C362.191 313.401 395.487 327.192 430.204 327.192ZM554.177 191.518C554.177 191.518 554.942 214.194 548.297 234.675C541.651 255.156 527.695 273.039 527.695 273.039C520.968 280.954 510.98 280.652 505.542 272.355L484.236 240.133L473.502 223.881C467.279 214.436 470.843 203.46 481.436 199.493L499.682 192.646L535.931 179.073C545.135 175.548 553.392 181.167 554.177 191.518ZM463.976 76.9093C463.976 76.9093 485.766 83.1926 503.186 95.8396C520.606 108.487 533.394 127.276 533.394 127.276C538.831 136.137 535.408 145.542 525.882 148.18L488.626 158.471L469.837 163.666C458.942 166.687 449.597 159.901 449.094 148.583L448.228 129.109C447.724 117.811 446.939 100.431 446.516 90.5029C446.093 80.5746 453.806 74.5531 463.976 76.9093ZM443.032 245.953L455.115 261.198L479.282 291.406C485.464 299.159 482.685 308.765 473.079 312.712C473.079 312.712 451.752 320.446 430.224 320.446C408.696 320.446 387.349 312.732 387.349 312.732C377.743 308.705 374.943 299.179 381.146 291.426C387.349 283.672 398.183 270.039 405.312 261.218L417.396 245.973C424.424 237.112 435.984 237.112 443.032 245.953ZM327.094 127.276C327.094 127.276 339.801 108.507 357.302 95.8396C374.802 83.1725 396.512 76.8892 396.512 76.8892C406.581 74.4524 414.516 80.5746 414.073 90.5029C413.63 100.431 412.844 117.811 412.341 129.109L411.475 148.583C410.971 159.88 401.627 166.707 390.712 163.666L371.943 158.471L334.686 148.18C325.02 145.542 321.636 136.117 327.094 127.276ZM324.577 179.032L360.826 192.606L379.072 199.433C389.665 203.46 393.169 214.396 387.006 223.841L376.252 240.093L354.966 272.314C349.488 280.611 339.499 280.934 332.813 272.999C332.813 272.999 318.877 255.116 312.232 234.736C305.586 214.355 306.331 191.579 306.331 191.579C307.016 181.167 315.273 175.528 324.577 179.032Z" fill="#E0E0E0"/>
<path d="M422.77 165.56C422.774 164.091 423.213 162.656 424.032 161.437C424.851 160.217 426.013 159.268 427.371 158.708C428.729 158.149 430.223 158.005 431.663 158.294C433.103 158.583 434.425 159.292 435.462 160.332C436.5 161.372 437.205 162.696 437.491 164.137C437.776 165.578 437.627 167.071 437.064 168.428C436.501 169.785 435.549 170.944 434.327 171.76C433.106 172.575 431.67 173.011 430.201 173.011C429.223 173.011 428.255 172.818 427.352 172.443C426.449 172.068 425.629 171.519 424.939 170.827C424.249 170.135 423.702 169.313 423.329 168.409C422.957 167.506 422.767 166.537 422.77 165.56Z" fill="#4A4A4A"/>
<path d="M425.992 165.56C425.992 164.727 426.239 163.913 426.702 163.221C427.164 162.529 427.821 161.989 428.59 161.671C429.36 161.352 430.206 161.269 431.022 161.431C431.839 161.594 432.589 161.995 433.177 162.583C433.766 163.172 434.167 163.922 434.329 164.738C434.492 165.555 434.408 166.401 434.09 167.17C433.771 167.939 433.232 168.597 432.54 169.059C431.847 169.522 431.034 169.768 430.201 169.768C429.085 169.768 428.014 169.325 427.225 168.536C426.436 167.746 425.992 166.676 425.992 165.56Z" fill="#BABABA"/>
<path d="M427.867 165.559C427.867 165.097 428.004 164.646 428.261 164.262C428.518 163.877 428.882 163.578 429.309 163.401C429.736 163.224 430.206 163.178 430.659 163.268C431.112 163.358 431.528 163.581 431.855 163.908C432.182 164.234 432.404 164.651 432.494 165.104C432.585 165.557 432.538 166.027 432.362 166.453C432.185 166.88 431.885 167.245 431.501 167.502C431.117 167.759 430.665 167.896 430.203 167.896C429.896 167.896 429.593 167.835 429.309 167.718C429.026 167.6 428.768 167.428 428.551 167.211C428.334 166.994 428.162 166.737 428.045 166.453C427.928 166.17 427.867 165.866 427.867 165.559Z" fill="#E0E0E0"/>
<path d="M398.684 193.874C397.286 193.42 396.054 192.562 395.144 191.408C394.234 190.254 393.687 188.856 393.572 187.39C393.456 185.925 393.778 184.459 394.496 183.177C395.214 181.894 396.296 180.854 397.606 180.186C398.915 179.519 400.393 179.255 401.852 179.427C403.312 179.6 404.687 180.201 405.805 181.155C406.923 182.11 407.732 183.374 408.132 184.788C408.531 186.203 408.502 187.704 408.048 189.102C407.747 190.03 407.265 190.89 406.632 191.632C405.998 192.374 405.224 192.985 404.354 193.428C403.485 193.871 402.536 194.139 401.563 194.215C400.59 194.292 399.612 194.176 398.684 193.874Z" fill="#4A4A4A"/>
<path d="M399.673 190.793C398.881 190.537 398.182 190.051 397.666 189.398C397.15 188.744 396.839 187.952 396.773 187.122C396.707 186.291 396.889 185.46 397.296 184.733C397.703 184.006 398.316 183.416 399.058 183.038C399.8 182.66 400.638 182.511 401.465 182.609C402.292 182.707 403.071 183.048 403.704 183.59C404.337 184.131 404.796 184.848 405.021 185.65C405.246 186.452 405.228 187.303 404.97 188.095C404.62 189.151 403.867 190.026 402.876 190.531C401.884 191.037 400.734 191.131 399.673 190.793Z" fill="#BABABA"/>
<path d="M400.256 189.021C399.941 188.948 399.644 188.81 399.385 188.617C399.126 188.423 398.91 188.178 398.751 187.897C398.591 187.615 398.492 187.304 398.459 186.982C398.427 186.661 398.461 186.336 398.56 186.028C398.659 185.72 398.822 185.436 399.036 185.194C399.251 184.953 399.514 184.758 399.807 184.623C400.101 184.488 400.42 184.415 400.743 184.409C401.067 184.404 401.388 184.466 401.686 184.591C402.001 184.664 402.297 184.801 402.556 184.995C402.815 185.188 403.032 185.433 403.191 185.715C403.35 185.996 403.45 186.308 403.482 186.629C403.515 186.951 403.481 187.276 403.382 187.584C403.282 187.892 403.12 188.175 402.905 188.417C402.691 188.659 402.428 188.854 402.134 188.989C401.841 189.124 401.522 189.196 401.199 189.202C400.875 189.208 400.554 189.146 400.256 189.021Z" fill="#E0E0E0"/>
<path d="M418.139 225.593C417.274 226.775 416.079 227.675 414.704 228.179C413.328 228.682 411.835 228.767 410.411 228.423C408.988 228.078 407.698 227.319 406.705 226.242C405.713 225.165 405.062 223.818 404.834 222.371C404.607 220.924 404.813 219.443 405.427 218.113C406.041 216.783 407.035 215.665 408.284 214.9C409.533 214.135 410.981 213.757 412.444 213.814C413.908 213.872 415.322 214.361 416.507 215.221C417.297 215.794 417.965 216.517 418.475 217.349C418.984 218.181 419.325 219.105 419.476 220.068C419.628 221.032 419.588 222.016 419.358 222.964C419.128 223.912 418.714 224.805 418.139 225.593Z" fill="#4A4A4A"/>
<path d="M415.543 223.579C415.055 224.255 414.378 224.77 413.596 225.061C412.815 225.351 411.964 225.402 411.154 225.209C410.343 225.015 409.608 224.585 409.042 223.973C408.475 223.362 408.104 222.595 407.974 221.772C407.843 220.949 407.961 220.105 408.31 219.349C408.66 218.592 409.227 217.956 409.939 217.522C410.65 217.088 411.475 216.875 412.308 216.91C413.14 216.945 413.944 217.226 414.617 217.719C415.514 218.375 416.115 219.36 416.288 220.458C416.462 221.556 416.194 222.678 415.543 223.579Z" fill="#BABABA"/>
<path d="M414.031 222.532C413.761 222.906 413.385 223.192 412.952 223.352C412.518 223.513 412.047 223.542 411.598 223.435C411.149 223.328 410.741 223.09 410.427 222.751C410.112 222.413 409.905 221.989 409.832 221.532C409.759 221.076 409.823 220.609 410.015 220.189C410.208 219.769 410.521 219.415 410.914 219.173C411.307 218.931 411.764 218.811 412.225 218.828C412.687 218.845 413.133 218.999 413.508 219.269C413.756 219.449 413.967 219.676 414.128 219.937C414.289 220.199 414.397 220.489 414.445 220.792C414.494 221.095 414.482 221.405 414.411 221.703C414.34 222.002 414.211 222.283 414.031 222.532Z" fill="#E0E0E0"/>
<path d="M454.268 216.792C455.132 217.982 455.624 219.401 455.681 220.87C455.738 222.339 455.358 223.792 454.59 225.045C453.821 226.298 452.698 227.295 451.362 227.91C450.027 228.525 448.539 228.729 447.087 228.498C445.635 228.267 444.284 227.61 443.206 226.611C442.127 225.612 441.369 224.316 441.028 222.886C440.686 221.456 440.776 219.957 441.287 218.578C441.798 217.199 442.706 216.003 443.896 215.141C444.685 214.566 445.58 214.153 446.528 213.925C447.477 213.697 448.462 213.659 449.425 213.812C450.389 213.966 451.313 214.308 452.144 214.819C452.975 215.331 453.697 216.001 454.268 216.792Z" fill="#4A4A4A"/>
<path d="M451.649 218.685C452.135 219.356 452.411 220.155 452.443 220.982C452.475 221.81 452.261 222.628 451.828 223.333C451.395 224.039 450.762 224.601 450.011 224.947C449.259 225.294 448.421 225.41 447.603 225.28C446.785 225.151 446.024 224.783 445.416 224.221C444.808 223.659 444.379 222.93 444.185 222.125C443.991 221.32 444.04 220.476 444.325 219.699C444.611 218.922 445.12 218.247 445.789 217.759C446.234 217.434 446.739 217.2 447.275 217.071C447.811 216.942 448.367 216.919 448.911 217.006C449.456 217.092 449.978 217.284 450.448 217.573C450.917 217.861 451.326 218.239 451.649 218.685Z" fill="#BABABA"/>
<path d="M450.14 219.793C450.323 220.038 450.455 220.316 450.529 220.613C450.603 220.91 450.617 221.218 450.57 221.52C450.523 221.822 450.416 222.111 450.256 222.372C450.096 222.632 449.885 222.857 449.636 223.035C449.137 223.401 448.513 223.553 447.901 223.458C447.289 223.364 446.74 223.031 446.374 222.532C446.163 222.287 446.006 222.001 445.911 221.693C445.817 221.384 445.787 221.059 445.824 220.738C445.862 220.418 445.965 220.108 446.128 219.829C446.291 219.55 446.51 219.309 446.771 219.119C447.032 218.929 447.329 218.795 447.645 218.726C447.96 218.657 448.286 218.654 448.603 218.717C448.92 218.781 449.22 218.909 449.484 219.094C449.749 219.279 449.972 219.517 450.14 219.793Z" fill="#E0E0E0"/>
<path d="M457.127 179.737C458.525 179.283 460.026 179.254 461.44 179.653C462.854 180.053 464.119 180.862 465.073 181.98C466.027 183.098 466.629 184.473 466.801 185.933C466.974 187.392 466.71 188.87 466.042 190.18C465.375 191.489 464.334 192.571 463.052 193.289C461.769 194.007 460.303 194.329 458.838 194.213C457.373 194.098 455.975 193.551 454.821 192.641C453.667 191.731 452.808 190.499 452.354 189.102C452.052 188.173 451.937 187.195 452.013 186.222C452.09 185.249 452.357 184.3 452.801 183.431C453.244 182.561 453.854 181.787 454.596 181.154C455.339 180.52 456.198 180.039 457.127 179.737Z" fill="#4A4A4A"/>
<path d="M458.115 182.798C458.906 182.54 459.757 182.522 460.559 182.747C461.361 182.972 462.078 183.431 462.619 184.064C463.161 184.697 463.502 185.476 463.6 186.303C463.698 187.13 463.549 187.968 463.171 188.71C462.793 189.452 462.203 190.066 461.476 190.472C460.749 190.879 459.918 191.061 459.088 190.995C458.257 190.929 457.465 190.618 456.812 190.102C456.158 189.586 455.672 188.887 455.416 188.095C455.079 187.034 455.173 185.884 455.678 184.892C456.183 183.901 457.058 183.148 458.115 182.798Z" fill="#BABABA"/>
<path d="M458.697 184.591C458.994 184.471 459.312 184.414 459.632 184.422C459.951 184.43 460.266 184.504 460.556 184.639C460.846 184.774 461.105 184.968 461.318 185.207C461.53 185.446 461.691 185.727 461.79 186.031C461.89 186.335 461.926 186.656 461.896 186.974C461.866 187.293 461.772 187.602 461.618 187.882C461.463 188.163 461.253 188.409 461 188.604C460.748 188.8 460.457 188.942 460.147 189.021C459.554 189.212 458.91 189.16 458.355 188.877C457.8 188.594 457.38 188.103 457.187 187.511C457.003 186.923 457.058 186.287 457.341 185.74C457.624 185.193 458.111 184.78 458.697 184.591Z" fill="#E0E0E0"/>
<path d="M448.267 196.271C448.267 199.856 447.204 203.36 445.213 206.34C443.221 209.321 440.39 211.644 437.078 213.016C433.767 214.388 430.122 214.747 426.606 214.047C423.091 213.348 419.861 211.622 417.326 209.087C414.791 206.552 413.065 203.323 412.366 199.807C411.666 196.291 412.025 192.647 413.397 189.335C414.769 186.023 417.092 183.192 420.073 181.201C423.053 179.209 426.558 178.146 430.142 178.146C434.949 178.146 439.559 180.056 442.958 183.455C446.358 186.854 448.267 191.464 448.267 196.271Z" fill="#5D5D5D"/>
<path d="M479.261 291.426L455.095 261.218L443.012 245.973C435.963 237.132 424.403 237.132 417.355 245.973L405.272 261.218C398.223 270.059 387.369 283.652 381.105 291.426C374.842 299.199 377.702 308.785 387.308 312.732C387.308 312.732 408.615 320.466 430.163 320.466C451.711 320.466 473.018 312.732 473.018 312.732C482.664 308.785 485.444 299.179 479.261 291.426ZM462.586 306.147C452.15 309.721 441.231 311.69 430.203 311.987C419.176 311.69 408.257 309.721 397.82 306.147C390.55 303.167 388.436 295.917 393.128 290.036L411.253 267.199L420.436 255.68C421.532 254.13 422.983 252.865 424.669 251.992C426.354 251.12 428.225 250.664 430.123 250.664C432.021 250.664 433.891 251.12 435.577 251.992C437.262 252.865 438.714 254.13 439.809 255.68L448.993 267.199L467.117 290.036C471.931 296.078 469.917 303.247 462.586 306.147Z" fill="#C2C2C2"/>
<path d="M535.831 179.032L499.581 192.606L481.396 199.413C470.803 203.44 467.299 214.376 473.461 223.821L484.195 240.072L505.502 272.294C510.98 280.591 520.968 280.914 527.655 272.979C527.655 272.979 541.59 255.096 548.256 234.716C554.922 214.335 554.137 191.558 554.137 191.558C553.392 181.167 545.135 175.528 535.831 179.032ZM544.772 199.413C544.971 210.459 543.498 221.472 540.402 232.077C536.707 242.468 531.459 252.239 524.835 261.057C519.74 267.098 512.208 266.816 508.06 260.553L491.949 236.186L483.893 223.881C482.758 222.356 482.006 220.581 481.7 218.705C481.394 216.829 481.543 214.907 482.135 213.101C482.728 211.295 483.745 209.657 485.103 208.326C486.46 206.996 488.117 206.011 489.935 205.454L503.73 200.278L531.078 190.028C537.925 187.329 544.168 191.639 544.772 199.413Z" fill="#C2C2C2"/>
<path d="M446.416 90.5029C446.859 100.431 447.625 117.811 448.148 129.109L449.014 148.583C449.518 159.88 458.862 166.707 469.757 163.667L488.546 158.471L525.803 148.18C535.389 145.522 538.752 136.097 533.315 127.276C533.315 127.276 520.607 108.507 503.107 95.8397C485.606 83.1725 463.897 76.9094 463.897 76.9094C453.807 74.5532 445.973 80.5947 446.416 90.5029ZM468.569 88.328C490.031 94.3061 508.621 107.819 520.929 126.39C525.058 133.076 522.5 140.185 515.27 142.179L487.076 149.952L472.879 153.879C471.079 154.488 469.161 154.656 467.283 154.37C465.406 154.084 463.624 153.353 462.087 152.236C460.551 151.12 459.304 149.651 458.452 147.954C457.6 146.257 457.168 144.38 457.191 142.481L456.546 127.78C456.143 119.241 455.559 106.11 455.237 98.5987C454.915 91.087 460.997 86.4752 468.629 88.328H468.569Z" fill="#C2C2C2"/>
<path d="M334.604 148.18L371.86 158.471L390.63 163.667C401.545 166.687 410.889 159.88 411.372 148.583L412.258 129.109C412.762 117.811 413.527 100.431 413.97 90.5029C414.413 80.5746 406.519 74.392 396.409 76.9094C396.409 76.9094 374.64 83.1926 357.22 95.8397C339.8 108.487 327.012 127.276 327.012 127.276C321.635 136.117 325.018 145.542 334.604 148.18ZM339.377 126.39C351.677 107.811 370.27 94.2961 391.737 88.3279C399.37 86.4752 405.331 91.0869 405.009 98.5986C404.686 106.11 404.082 119.241 403.7 127.779L403.035 142.481C403.061 144.379 402.632 146.256 401.782 147.953C400.932 149.651 399.688 151.12 398.153 152.237C396.617 153.354 394.837 154.086 392.96 154.372C391.083 154.657 389.165 154.488 387.367 153.879L373.25 149.952L345.056 142.179C337.826 140.185 335.248 133.076 339.377 126.39Z" fill="#C2C2C2"/>
<path d="M354.884 272.355C360.381 264.058 369.967 249.538 376.19 240.133L386.924 223.881C393.167 214.436 389.602 203.46 379.01 199.493L360.764 192.646L324.514 179.073C315.21 175.589 306.954 181.207 306.148 191.559C306.148 191.559 305.403 214.235 312.049 234.716C318.694 255.197 332.63 273.08 332.63 273.08C339.417 280.954 349.406 280.652 354.884 272.355ZM335.651 261.077C329.03 252.251 323.781 242.473 320.084 232.077C316.949 221.479 315.448 210.464 315.633 199.413C316.238 191.579 322.48 187.329 329.509 189.968L356.857 200.218L370.652 205.394C372.47 205.95 374.127 206.935 375.484 208.266C376.842 209.597 377.859 211.234 378.451 213.04C379.044 214.847 379.193 216.769 378.887 218.645C378.581 220.521 377.829 222.296 376.694 223.821L368.638 236.125C363.926 243.254 356.676 254.25 352.527 260.493C348.379 266.736 340.726 267.058 335.651 261.077Z" fill="#C2C2C2"/>
<path d="M443.393 196.271C443.393 198.88 442.62 201.43 441.17 203.599C439.721 205.769 437.661 207.459 435.25 208.458C432.84 209.456 430.188 209.717 427.629 209.208C425.07 208.699 422.72 207.443 420.875 205.598C419.03 203.753 417.774 201.403 417.265 198.844C416.756 196.286 417.017 193.633 418.016 191.223C419.014 188.813 420.705 186.753 422.874 185.303C425.043 183.854 427.594 183.08 430.203 183.08C433.699 183.085 437.051 184.477 439.524 186.95C441.997 189.422 443.388 192.774 443.393 196.271Z" fill="#2A2A2A"/>
<path d="M429.838 340.242L264.701 339.839C265.104 334.684 267.561 332.549 270.541 329.931C273.522 327.313 280.349 323.668 280.349 315.834C280.349 315.834 384.324 332.891 429.858 333.314" fill="#5D5D5D"/>
<path d="M429.821 333.274C406.078 332.327 367.573 327.232 334.908 323.95C341.206 328.156 348.153 331.3 355.47 333.254C366.244 336.194 409.481 336.697 429.821 336.939" fill="#4A4A4A"/>
<path d="M324.918 330.555H325.099C324.125 330.077 323.2 329.504 322.34 328.843C322.987 329.682 323.893 330.284 324.918 330.555Z" fill="#5D5D5D"/>
<path d="M373.954 340H370.631C362.667 340.15 354.743 338.839 347.25 336.134C344.194 334.972 341.01 334.181 337.765 333.777C333.394 333.472 329.116 332.373 325.138 330.535H324.957C323.938 330.274 323.033 329.687 322.379 328.864C321.312 328.11 320.436 327.117 319.822 325.964C318.783 324.066 317.323 322.433 315.552 321.191L312.33 320.707C312.914 321.312 314.344 322.721 316.861 324.836C317.963 325.811 318.831 327.023 319.399 328.38C319.79 329.446 320.432 330.403 321.269 331.171C322.107 331.938 323.116 332.493 324.212 332.791C327.14 333.591 330.121 334.183 333.133 334.563C336.786 334.957 340.385 335.747 343.867 336.919C347.041 338.312 350.356 339.359 353.755 340.04H373.894L373.954 340Z" fill="#767676"/>
<path d="M318.414 323.064C319.769 324.244 320.836 325.718 321.535 327.373C321.771 327.901 322.054 328.407 322.381 328.884C323.242 329.544 324.166 330.118 325.14 330.595C327.886 331.326 330.678 331.871 333.498 332.227C337.375 332.642 341.193 333.501 344.876 334.784C350.293 337.302 360.745 339.799 373.916 339.235V340L376.634 339.9V338.711C361.128 339.557 353.958 337.161 347.655 335.066C344.512 333.886 341.24 333.082 337.908 332.67C327.959 331.663 322.2 328.34 320.911 325.5C320.075 323.955 318.946 322.587 317.588 321.473L316.48 321.291L318.414 323.064Z" fill="#3F3F3F"/>
<path d="M344.873 334.784C341.19 333.501 337.372 332.643 333.494 332.227C330.675 331.871 327.883 331.326 325.137 330.596C329.114 332.433 333.393 333.532 337.764 333.838C341.008 334.241 344.193 335.032 347.249 336.194C354.741 338.9 362.665 340.21 370.63 340.061H373.953V339.295C360.742 339.799 350.29 337.302 344.873 334.784Z" fill="#3F3F3F"/>
<path d="M318.412 323.064L316.398 321.332L315.492 321.211C317.263 322.453 318.723 324.086 319.762 325.984C320.376 327.137 321.252 328.13 322.319 328.884C321.992 328.407 321.709 327.901 321.473 327.373C320.792 325.724 319.745 324.25 318.412 323.064Z" fill="#3F3F3F"/>
<path d="M301.334 319.096C301.334 319.096 292.836 319.519 292.151 321.332C291.829 322.198 287.137 328.219 287.137 328.219L294.89 328.884L299.3 323.99L306.51 323.507L309.088 319.982L301.334 319.096Z" fill="#4A4A4A"/>
<path d="M307.419 325.037C305.179 325.304 302.96 325.714 300.773 326.266C300.773 326.568 297.067 330.596 297.067 330.596L290.623 331.683L292.879 334.361L297.067 331.683L300.773 328.884L304.519 326.87L309.09 326.729L307.419 325.037Z" fill="#4A4A4A"/>
<path d="M429.818 340.242L595.599 339.92C595.197 334.764 592.76 332.609 589.779 330.011C586.799 327.414 579.972 323.748 579.972 315.914C579.972 315.914 475.352 332.911 429.839 333.334" fill="#5D5D5D"/>
<path d="M429.838 333.274C453.642 332.468 492.489 327.655 525.375 324.03C519.065 328.223 512.113 331.358 504.794 333.314C494.04 336.275 450.178 336.718 429.838 336.939" fill="#4A4A4A"/>
<path d="M535.306 330.636H535.145C536.113 330.158 537.03 329.585 537.883 328.924C537.24 329.767 536.332 330.37 535.306 330.636Z" fill="#5D5D5D"/>
<path d="M486.328 340.081H489.631C497.587 340.277 505.511 339.015 513.012 336.355C516.069 335.196 519.253 334.405 522.497 333.999C526.871 333.67 531.152 332.573 535.144 330.757H535.305C536.326 330.502 537.234 329.913 537.883 329.085C538.962 328.33 539.845 327.329 540.461 326.165C541.496 324.277 542.949 322.651 544.71 321.412L547.952 320.929C547.348 321.533 545.938 322.943 543.421 325.057C542.308 326.027 541.432 327.239 540.864 328.602C540.475 329.67 539.834 330.628 538.997 331.396C538.159 332.164 537.148 332.718 536.05 333.012C533.129 333.811 530.154 334.403 527.149 334.784C523.488 335.167 519.881 335.957 516.395 337.141C513.222 338.537 509.907 339.584 506.507 340.262H486.368L486.328 340.081Z" fill="#767676"/>
<path d="M541.871 323.124C540.509 324.303 539.435 325.777 538.73 327.434C538.494 327.968 538.21 328.48 537.884 328.964C537.03 329.625 536.113 330.199 535.145 330.676C532.392 331.408 529.593 331.953 526.767 332.307C522.896 332.723 519.085 333.581 515.409 334.865C509.992 337.362 499.54 339.879 486.369 339.295V340.081L483.65 339.96V338.772C499.157 339.618 506.306 337.241 512.63 335.127C515.77 333.959 519.034 333.154 522.357 332.73C532.325 331.743 538.065 328.421 539.354 325.561C540.247 324.014 541.422 322.648 542.818 321.533L543.804 321.392L541.871 323.124Z" fill="#3F3F3F"/>
<path d="M515.408 334.865C519.084 333.581 522.895 332.723 526.766 332.307C529.593 331.953 532.392 331.408 535.144 330.676C531.152 332.492 526.871 333.59 522.497 333.918C519.25 334.35 516.065 335.168 513.012 336.355C505.52 339.063 497.595 340.373 489.631 340.222H486.328V339.436C499.539 339.879 509.991 337.362 515.408 334.865Z" fill="#3F3F3F"/>
<path d="M541.872 323.124L543.886 321.412L544.772 321.291C543.012 322.53 541.558 324.156 540.523 326.044C539.908 327.208 539.024 328.209 537.945 328.964C538.272 328.48 538.555 327.968 538.791 327.434C539.479 325.783 540.532 324.309 541.872 323.124Z" fill="#3F3F3F"/>
<path d="M558.927 319.157C558.927 319.157 567.446 319.58 568.131 321.412C568.453 322.278 573.125 328.3 573.125 328.3L565.372 328.964L560.961 324.05L553.752 323.567L551.174 320.063L558.927 319.157Z" fill="#4A4A4A"/>
<path d="M552.845 325.118C555.085 325.383 557.305 325.793 559.491 326.346C559.491 326.628 563.197 330.676 563.197 330.676L569.641 331.763L567.385 334.341L563.197 331.683L559.491 328.884L555.745 326.87L551.174 326.749L552.845 325.118Z" fill="#4A4A4A"/>
<path d="M400.942 333.052C400.68 333.375 400.096 333.818 399.814 334.2C399.567 334.507 399.376 334.855 399.25 335.227C399.472 335.086 399.753 334.804 400.116 334.502C400.478 334.2 400.519 334.2 400.72 334.019C401.012 333.843 401.265 333.61 401.465 333.334C401.548 333.161 401.59 332.972 401.59 332.781C401.59 332.589 401.548 332.4 401.465 332.227C401.411 332.147 401.382 332.052 401.382 331.955C401.382 331.858 401.411 331.763 401.465 331.683C401.654 331.377 401.877 331.093 402.13 330.837C401.731 330.921 401.37 331.133 401.103 331.441C401.013 331.581 400.939 331.729 400.881 331.884C400.848 332.057 400.848 332.235 400.881 332.408C401.002 332.73 401.022 332.851 400.942 333.052Z" fill="#5D5D5D"/>
<path d="M406.54 333.596C406.271 333.891 405.982 334.167 405.674 334.422C405.547 334.52 405.447 334.65 405.383 334.798C405.32 334.946 405.295 335.107 405.312 335.268C405.475 335.051 405.69 334.878 405.936 334.764C406.361 334.574 406.734 334.284 407.023 333.918C407.245 333.475 407.295 332.966 407.164 332.488C407.164 332.126 407.164 331.884 407.044 331.663C406.857 331.906 406.751 332.202 406.741 332.509C406.733 332.88 406.665 333.247 406.54 333.596Z" fill="#5D5D5D"/>
<path d="M413.671 334.059C413.228 334.623 412.623 335.348 412.744 335.751C413.251 335.327 413.729 334.87 414.174 334.381C414.321 334.066 414.398 333.723 414.398 333.375C414.398 333.027 414.321 332.683 414.174 332.368C413.953 332.629 413.973 333.475 413.671 334.059Z" fill="#5D5D5D"/>
<path d="M420.374 334.12C420.374 334.543 420.233 334.865 420.153 335.147C420.072 335.429 420.012 335.791 420.153 335.932C420.255 335.711 420.391 335.508 420.556 335.328C420.768 334.998 420.912 334.628 420.979 334.241C421.169 333.619 421.111 332.948 420.817 332.368C420.637 332.943 420.489 333.528 420.374 334.12Z" fill="#5D5D5D"/>
<path d="M425.61 334.341C425.489 334.684 425.288 335.086 425.187 335.409C425.122 335.68 425.122 335.963 425.187 336.234C425.352 336.031 425.5 335.816 425.63 335.59C425.883 335.273 426.087 334.92 426.235 334.543C426.421 333.872 426.357 333.156 426.053 332.529C425.852 332.811 425.912 333.616 425.61 334.341Z" fill="#5D5D5D"/>
<path d="M431.652 334.623C431.445 334.852 431.263 335.102 431.108 335.368C430.927 335.65 431.108 336.013 431.229 336.033C431.229 335.67 431.611 335.61 432.155 334.945C432.699 334.281 432.155 333.616 432.377 333.354C431.934 333.314 431.853 334.341 431.652 334.623Z" fill="#5D5D5D"/>
<path d="M437.01 334.341C436.205 335.006 435.661 335.711 435.238 335.63C435.359 335.872 435.842 335.811 436.205 335.63C436.633 335.396 437.032 335.112 437.393 334.784L437.615 334.603L438.199 334.22C438.35 334.065 438.479 333.888 438.581 333.697C438.696 333.44 438.777 333.169 438.823 332.891C438.42 333.153 438.219 333.797 437.353 334.079C437.228 334.152 437.113 334.24 437.01 334.341Z" fill="#5D5D5D"/>
<path d="M444.32 333.878C443.595 334.724 443.555 335.429 443.232 335.711C443.716 335.711 444.239 334.865 444.723 334.321C445.206 333.777 445.488 333.777 445.609 333.334C445.686 333.037 445.686 332.725 445.609 332.428C445.468 332.589 445.428 332.911 445.246 333.153C445.065 333.395 444.743 333.516 444.32 333.878Z" fill="#5D5D5D"/>
<path d="M452.817 333.193C452.628 333.663 452.513 334.159 452.475 334.663C452.479 334.992 452.534 335.318 452.636 335.63C452.757 335.339 452.845 335.035 452.898 334.724C452.998 334.321 453.22 333.938 453.361 333.455C453.62 332.671 453.716 331.841 453.643 331.018C453.28 331.341 453.159 332.327 452.817 333.193Z" fill="#5D5D5D"/>
<path d="M460.61 332.71C460.362 333.403 460.18 334.118 460.066 334.845C460.61 334.285 460.993 333.59 461.174 332.831C461.31 332.453 461.34 332.046 461.262 331.652C461.184 331.258 461 330.893 460.731 330.596C460.816 331.302 460.775 332.018 460.61 332.71Z" fill="#5D5D5D"/>
<path d="M348.582 320.486C351.102 318.387 353.797 316.507 356.637 314.867C353.578 316.109 350.747 317.852 348.259 320.023C346.709 321.513 344.936 322.842 344.453 324.614C344.171 325.44 344.05 326.185 343.809 326.789C343.636 327.305 343.346 327.773 342.963 328.159C343.431 327.844 343.801 327.405 344.03 326.89C344.332 326.286 344.534 325.52 344.856 324.755C345.299 323.184 347.071 321.976 348.582 320.486Z" fill="#5D5D5D"/>
<path d="M356.113 323.768C357.1 322.325 358.294 321.036 359.658 319.942C360.806 318.955 361.672 318.17 362.316 317.646C361.652 318.029 360.624 318.694 359.376 319.66C357.902 320.717 356.627 322.026 355.61 323.527C354.502 325.279 354.381 327.212 353.596 328.461C352.98 329.432 352.1 330.208 351.059 330.696C352.237 330.397 353.267 329.682 353.959 328.682C354.905 327.273 355.127 325.359 356.113 323.768Z" fill="#5D5D5D"/>
<path d="M365.013 326.286C366.403 324.559 367.889 322.912 369.464 321.352C367.551 322.575 365.879 324.138 364.53 325.964C364.116 326.557 363.753 327.183 363.442 327.836C363.154 328.382 362.838 328.913 362.496 329.427C361.958 330.121 361.328 330.737 360.623 331.26C361.466 330.901 362.221 330.366 362.838 329.689C363.251 329.195 363.615 328.662 363.926 328.098C364.254 327.474 364.617 326.869 365.013 326.286Z" fill="#5D5D5D"/>
<path d="M371.881 329.266C372.347 328.155 372.892 327.078 373.512 326.044C374.056 325.158 374.64 324.554 374.902 324.03C374.261 324.539 373.674 325.113 373.15 325.742C372.412 326.746 371.797 327.834 371.317 328.984C370.974 330.124 370.421 331.19 369.686 332.126C369.106 332.696 368.561 333.302 368.055 333.938C368.498 333.616 369.162 333.133 370.069 332.428C370.906 331.526 371.526 330.445 371.881 329.266Z" fill="#5D5D5D"/>
<path d="M380.519 329.971C381.164 328.461 382.131 327.232 382.332 326.568C381.33 327.458 380.527 328.549 379.976 329.77C379.803 330.18 379.694 330.615 379.653 331.059V332.166C379.58 332.645 379.337 333.081 378.969 333.395C379.241 333.316 379.487 333.166 379.681 332.961C379.876 332.756 380.012 332.502 380.076 332.227C380.099 331.456 380.249 330.694 380.519 329.971Z" fill="#5D5D5D"/>
<path d="M388.071 330.736C388.637 329.962 389.11 329.124 389.48 328.239C388.728 328.862 388.082 329.604 387.567 330.434C387.262 330.941 387.019 331.481 386.842 332.045C386.749 332.428 386.702 332.82 386.701 333.213C387.023 332.75 387.346 331.804 388.071 330.736Z" fill="#5D5D5D"/>
<path d="M517.826 317.123C517.197 313.6 516.316 310.127 515.188 306.731C515.409 308.604 516.456 312.531 517.201 317.223C517.946 321.916 518.833 326.004 517.725 327.655C518.522 326.435 518.864 324.974 518.692 323.527C518.59 321.371 518.301 319.228 517.826 317.123Z" fill="#5D5D5D"/>
<path d="M511.584 321.009C511.334 319.075 510.965 317.158 510.477 315.27C510.094 313.639 509.873 312.31 509.631 311.504C509.631 312.33 509.792 313.679 510.054 315.351C510.316 317.022 510.698 318.955 510.98 321.07C510.98 322.137 510.98 323.084 510.98 324.131C510.98 325.178 510.859 326.024 510.799 326.85C510.82 328.126 510.537 329.389 509.973 330.535C510.751 329.474 511.193 328.204 511.242 326.89C511.363 326.064 511.443 325.138 511.524 324.171C511.604 323.205 511.584 322.117 511.584 321.009Z" fill="#5D5D5D"/>
<path d="M505.06 323.648C504.839 319.439 504.637 315.914 504.376 314.263C504.219 317.389 504.219 320.521 504.376 323.648C504.376 324.675 504.537 325.662 504.476 326.628C504.378 327.49 504.223 328.344 504.013 329.186C503.621 330.397 503.621 331.701 504.013 332.911C503.838 331.687 503.984 330.438 504.436 329.286C504.707 328.431 504.909 327.556 505.04 326.668C505.201 325.682 505.08 324.695 505.06 323.648Z" fill="#5D5D5D"/>
<path d="M496.698 326.286C496.557 322.903 496.698 320.063 496.557 318.714C496.153 321.216 495.997 323.753 496.094 326.286C496.416 329.649 495.208 332.327 495.43 333.777C495.591 333.133 495.812 332.126 496.215 330.877C496.656 329.389 496.82 327.833 496.698 326.286Z" fill="#5D5D5D"/>
<path d="M489.267 329.286C489.443 327.27 489.355 325.239 489.006 323.245C488.804 324.272 489.006 326.608 488.663 329.166C488.462 329.77 488.482 330.535 488.16 330.938C487.838 331.341 487.777 331.361 487.576 331.643C487.486 331.785 487.428 331.945 487.403 332.111C487.379 332.278 487.39 332.447 487.435 332.609C487.677 333.334 488.301 333.274 488.542 333.455C488.784 333.636 488.542 333.979 488.442 334.18L488.724 333.858C488.797 333.783 488.839 333.681 488.839 333.576C488.839 333.471 488.797 333.369 488.724 333.294C488.401 333.012 487.918 332.871 487.878 332.569C487.777 332.106 488.16 331.844 488.643 331.3C488.873 331.025 489.02 330.689 489.066 330.334C489.086 329.991 489.167 329.649 489.267 329.286Z" fill="#5D5D5D"/>
<path d="M482.664 330.475C482.876 329.476 482.937 328.451 482.845 327.434C482.81 326.763 482.81 326.091 482.845 325.42C482.579 326.06 482.429 326.742 482.402 327.434C482.359 328.404 482.225 329.369 481.999 330.314C481.798 331.361 480.892 331.784 480.207 332.327C479.936 332.552 479.737 332.851 479.633 333.187C479.53 333.523 479.526 333.882 479.623 334.22C479.636 333.91 479.721 333.606 479.871 333.333C480.021 333.061 480.233 332.827 480.489 332.65C481.153 332.327 482.382 331.743 482.664 330.475Z" fill="#5D5D5D"/>
<path d="M474.449 331.159C474.846 330.456 475.17 329.714 475.416 328.944C475.535 328.421 475.609 327.889 475.637 327.353C475.391 327.819 475.182 328.304 475.013 328.803C474.791 329.407 474.308 330.072 473.946 330.817C473.583 331.562 473.019 332.207 472.616 332.73C472.266 333.119 471.949 333.536 471.67 333.979C472.113 333.684 472.537 333.361 472.939 333.012C473.498 332.442 474.004 331.822 474.449 331.159Z" fill="#5D5D5D"/>
<path d="M468.726 331.643C468.51 330.893 468.368 330.124 468.303 329.347C468.098 329.62 467.986 329.952 467.981 330.293C467.968 330.782 468.022 331.27 468.142 331.743C468.404 332.73 467.437 332.992 467.115 333.314C467.453 333.325 467.79 333.263 468.102 333.133C468.351 332.983 468.545 332.758 468.657 332.49C468.77 332.222 468.794 331.925 468.726 331.643Z" fill="#5D5D5D"/>
</g>
<path d="M53.0445 258V237.055L202.473 50.169H234.695L86.4746 237.055L70.7665 232.222H297.527V258H53.0445ZM212.14 332.11V258L212.945 232.222V166.973H241.139V332.11H212.14Z" fill="#1C2541"/>
<path d="M53.0445 258H38.9475V272.097H53.0445V258ZM53.0445 237.055L42.0342 228.252L38.9475 232.112V237.055H53.0445ZM202.473 50.169V36.072H195.695L191.463 41.3656L202.473 50.169ZM234.695 50.169L245.74 58.9288L263.868 36.072H234.695V50.169ZM86.4746 237.055L82.3288 250.529L91.5345 253.362L97.5196 245.815L86.4746 237.055ZM70.7665 232.222V218.125L66.6207 245.696L70.7665 232.222ZM297.527 232.222H311.624V218.125H297.527V232.222ZM297.527 258V272.097H311.624V258H297.527ZM212.14 332.11H198.043V346.207H212.14V332.11ZM212.14 258L198.049 257.559L198.043 257.779V258H212.14ZM212.945 232.222L227.035 232.662L227.042 232.442V232.222H212.945ZM212.945 166.973V152.876H198.848V166.973H212.945ZM241.139 166.973H255.236V152.876H241.139V166.973ZM241.139 332.11V346.207H255.236V332.11H241.139ZM67.1415 258V237.055H38.9475V258H67.1415ZM64.0547 245.859L213.483 58.9725L191.463 41.3656L42.0342 228.252L64.0547 245.859ZM202.473 64.266H234.695V36.072H202.473V64.266ZM223.65 41.4092L75.4296 228.296L97.5196 245.815L245.74 58.9288L223.65 41.4092ZM90.6203 223.582L74.9122 218.748L66.6207 245.696L82.3288 250.529L90.6203 223.582ZM70.7665 246.319H297.527V218.125H70.7665V246.319ZM283.43 232.222V258H311.624V232.222H283.43ZM297.527 243.902H53.0445V272.097H297.527V243.902ZM226.237 332.11V258H198.043V332.11H226.237ZM226.23 258.44L227.035 232.662L198.855 231.782L198.049 257.559L226.23 258.44ZM227.042 232.222V166.973H198.848V232.222H227.042ZM212.945 181.07H241.139V152.876H212.945V181.07ZM227.042 166.973V332.11H255.236V166.973H227.042ZM241.139 318.013H212.14V346.207H241.139V318.013Z" fill="#1C2541"/>
</svg>
