<svg width="94" height="94" viewBox="0 0 94 94" fill="none" xmlns="http://www.w3.org/2000/svg">
<path fill-rule="evenodd" clip-rule="evenodd" d="M52.9224 2.69155L58.8767 7.14858C60.5052 8.36753 62.2193 8.99136 64.2503 9.10444L71.6763 9.51753C76.123 9.7648 79.7345 12.7951 80.7501 17.1314L82.4466 24.373C82.9105 26.3535 83.8226 27.9332 85.3058 29.3251L90.729 34.4152C93.9763 37.4628 94.7949 42.1056 92.7859 46.0802L89.4306 52.7179C88.513 54.5334 88.1962 56.3296 88.4376 58.3494L89.3204 65.7345C89.849 70.1566 87.4917 74.2392 83.398 75.9925L76.5609 78.9207C74.6909 79.7214 73.2937 80.8939 72.1804 82.5962L68.1095 88.8209C65.672 92.548 61.2419 94.1603 56.979 92.872L49.8595 90.7205C47.9124 90.132 46.0884 90.132 44.1411 90.7205L37.0216 92.872C32.7587 94.1603 28.3286 92.548 25.8911 88.8209L21.8202 82.5962C20.7068 80.8939 19.3095 79.7214 17.4398 78.9207L10.6023 75.9921C6.50852 74.2388 4.15129 70.1562 4.67981 65.7341L5.56262 58.349C5.80403 56.3293 5.48723 54.533 4.56965 52.7175L1.21438 46.0798C-0.794604 42.1054 0.0239509 37.4627 3.27122 34.4148L8.69446 29.3248C10.1777 27.9328 11.0896 26.3531 11.5534 24.3726L13.2499 17.131C14.2656 12.7949 17.8771 9.7646 22.3238 9.51714L29.7497 9.10405C31.7808 8.99116 33.4949 8.36714 35.1234 7.14819L41.0777 2.69116C44.6427 0.0228026 49.3572 0.0228028 52.9224 2.69155ZM43.2017 49.5507L36.74 43.089C35.0652 41.4142 32.3486 41.4142 30.674 43.089C28.9991 44.7638 28.9991 47.4802 30.674 49.155L40.1781 58.6589C41.8529 60.3335 44.5695 60.3337 46.2441 58.6589C51.9726 52.9302 57.6363 47.1373 63.3384 41.3824C65.0011 39.7043 64.9958 36.9964 63.3199 35.3298C61.6437 33.6628 58.9281 33.6675 57.2636 35.3486L43.2017 49.5507ZM46.9999 15.0574C38.1794 15.0574 30.1937 18.6328 24.4132 24.4132C18.6327 30.1939 15.0573 38.1794 15.0573 47C15.0573 55.8205 18.6327 63.8062 24.4132 69.5867C30.1937 75.3671 38.1794 78.9425 46.9999 78.9425C55.8204 78.9425 63.8062 75.3671 69.5866 69.5867C75.3671 63.8062 78.9425 55.8205 78.9425 47C78.9425 38.1794 75.3671 30.1937 69.5866 24.4132C63.8062 18.6328 55.8204 15.0574 46.9999 15.0574ZM67.3771 26.6228C62.1622 21.408 54.9577 18.1824 46.9999 18.1824C39.0421 18.1824 31.8376 21.408 26.6228 26.6228C21.4079 31.8377 18.1823 39.0421 18.1823 47C18.1823 54.9578 21.4079 62.1623 26.6228 67.3771C31.8376 72.5919 39.0421 75.8175 46.9999 75.8175C54.9577 75.8175 62.1622 72.5919 67.3771 67.3773C72.5919 62.1625 75.8173 54.958 75.8173 47.0002C75.8175 39.0421 72.5919 31.8377 67.3771 26.6228Z" fill="#F89E02"/>
</svg>
