<svg width="100" height="90" viewBox="0 0 100 90" fill="none" xmlns="http://www.w3.org/2000/svg">
<path d="M2.92945 88.1607H8.78836C10.4062 88.1607 11.7178 86.849 11.7178 85.2312V53.0072H2.92945C1.31161 53.0072 0 54.3188 0 55.9367V85.2312C0 86.8488 1.31161 88.1607 2.92945 88.1607ZM76.5564 0.276855C63.6131 0.276855 53.1207 10.7692 53.1207 23.7125C53.1207 36.6554 63.6131 47.1481 76.5564 47.1481C89.4997 47.1481 99.992 36.6554 99.992 23.7125C99.992 10.7692 89.4997 0.276855 76.5564 0.276855ZM81.4657 34.2558C80.8312 34.5729 80.166 34.8227 79.4854 35.0118V35.8213C79.4854 37.4391 78.1738 38.7507 76.556 38.7507C74.9381 38.7507 73.6265 37.4391 73.6265 35.8213V35.1034C72.4071 34.7964 71.2699 34.2802 70.3065 33.5578C69.0122 32.5872 68.7498 30.751 69.7206 29.4566C70.6914 28.1625 72.5276 27.8998 73.8218 28.8707C74.9936 29.7495 77.2473 29.8147 78.8454 29.0156C79.4878 28.6943 79.8344 28.3076 79.8344 28.1071C79.8344 27.7565 79.8344 27.7024 79.4446 27.4944C78.6802 27.0864 77.3288 26.8357 76.0216 26.5933C74.2767 26.2695 72.4723 25.9348 70.9088 25.1003C68.6256 23.8816 67.4186 21.8824 67.4186 19.3187C67.4186 16.7521 68.9578 14.5105 71.6413 13.1688C72.2771 12.8524 72.9419 12.5982 73.6265 12.4097V11.6045C73.6265 9.98663 74.9381 8.67501 76.556 8.67501C78.1738 8.67501 79.4854 9.98663 79.4854 11.6045V12.3218C80.7051 12.629 81.8421 13.1456 82.8055 13.868C84.0999 14.8388 84.3622 16.675 83.3914 17.9692C82.4205 19.2634 80.5848 19.5259 79.2901 18.5551C78.1166 17.6749 75.8609 17.6096 74.2614 18.409C73.6154 18.732 73.2775 19.1111 73.2775 19.3185C73.2775 19.6693 73.2775 19.7232 73.6673 19.9313C74.4317 20.3393 75.7834 20.5901 77.0903 20.8324C78.8353 21.1562 80.6396 21.491 82.2034 22.3255C84.4864 23.5441 85.6933 25.5434 85.6933 28.1071C85.6935 30.6711 84.1524 32.9123 81.4657 34.2558ZM52.8866 89.723H53.5311C63.374 89.6057 72.8067 86.8133 81.1267 81.7742L97.4729 70.3496C100.226 68.4159 100.754 64.7836 98.9376 62.2057C97.0627 59.5104 93.4302 58.8661 90.7937 60.741L75.0918 71.7557C70.0532 74.6852 63.9015 75.3296 58.3354 73.4546L40.2704 67.4783C38.7471 67.0098 37.9267 65.3105 38.4541 63.7876C38.9227 62.3229 40.446 61.5026 41.9693 61.9128C42.0279 61.9128 62.2606 68.4747 62.2606 68.4747C65.6678 69.4959 68.6949 67.5682 69.6429 64.725C70.6387 61.6196 68.9398 58.3386 65.8932 57.3428L38.3368 48.3201C32.3095 46.1259 24.1873 46.5792 17.5767 50.2758V83.0704L40.5632 88.2778C44.774 89.2041 48.9057 89.723 52.8866 89.723Z" fill="#F89E02"/>
</svg>
