<svg width="74" height="100" viewBox="0 0 74 100" fill="none" xmlns="http://www.w3.org/2000/svg">
<path d="M8.59299 27.6191C8.59299 21.4584 13.6055 16.4459 19.767 16.4459C25.9278 16.4459 30.941 21.4584 30.941 27.6191V36.6242C34.0446 35.675 36.3098 32.7844 36.3098 29.3732V7.58066C36.3098 3.40039 32.9086 0 28.7285 0H10.8055C6.62542 0 3.22424 3.40039 3.22424 7.58066V29.373C3.22424 32.784 5.4887 35.6748 8.59299 36.624V27.6191ZM65.8783 0H47.9545C43.7744 0 40.374 3.40039 40.374 7.58066V29.373C40.374 33.5531 43.7744 36.9535 47.9545 36.9535H65.8783C70.0584 36.9535 73.4596 33.5531 73.4596 29.373V7.58066C73.4596 3.40039 70.0586 0 65.8783 0Z" fill="#F89E02"/>
<path d="M51.9941 47.0986C49.0274 47.0986 46.6231 49.5033 46.6231 52.4697V49.7338C46.6231 46.7674 44.2184 44.3627 41.2514 44.3627C38.2852 44.3627 35.8803 46.7666 35.8803 49.7338V47.4326C35.8803 44.6113 33.7051 42.3004 30.941 42.0799C30.7974 42.0684 30.6533 42.0622 30.5092 42.0615C28.344 42.0615 26.4793 43.3441 25.6295 45.1896C25.3053 45.8929 25.1376 46.6582 25.1381 47.4326V27.6191C25.1381 24.6529 22.7334 22.248 19.767 22.248C16.8006 22.248 14.3959 24.6529 14.3959 27.6191V73.7312L14.1633 73.7016L10.8543 59.5383C10.1791 56.6496 7.28985 54.8547 4.40137 55.5297C1.36798 55.5297 -0.549407 57.9467 0.140437 60.9008L3.97716 77.3217C5.9838 90.1695 16.3697 100 16.3697 100H49.002C54.4546 91.7066 57.3608 81.9987 57.3621 72.0734L57.3652 52.4697C57.3652 49.5033 54.9604 47.0986 51.9941 47.0986Z" fill="#F89E02"/>
</svg>
