<svg width="94" height="94" viewBox="0 0 94 94" fill="none" xmlns="http://www.w3.org/2000/svg">
<path d="M47 14.1875C40.5103 14.1875 34.1664 16.1119 28.7704 19.7174C23.3744 23.3229 19.1687 28.4475 16.6852 34.4432C14.2017 40.4389 13.5519 47.0364 14.818 53.4014C16.0841 59.7664 19.2092 65.613 23.7981 70.2019C28.387 74.7908 34.2336 77.9159 40.5986 79.182C46.9636 80.4481 53.5611 79.7983 59.5568 77.3148C65.5525 74.8313 70.6771 70.6256 74.2826 65.2296C77.8881 59.8337 79.8125 53.4897 79.8125 47C79.8034 38.3004 76.3435 29.9597 70.1919 23.8081C64.0403 17.6565 55.6996 14.1966 47 14.1875ZM61.9375 58.3125C61.6467 58.681 61.2764 58.9791 60.8544 59.1847C60.4324 59.3903 59.9694 59.4981 59.5 59.5C58.7935 59.5056 58.1075 59.2622 57.5625 58.8125L45.0625 49.4375C44.6942 49.1465 44.3962 48.7762 44.1906 48.3542C43.9851 47.9323 43.8772 47.4694 43.875 47V25.125C43.875 24.2962 44.2043 23.5013 44.7903 22.9153C45.3764 22.3292 46.1712 22 47 22C47.8288 22 48.6237 22.3292 49.2097 22.9153C49.7958 23.5013 50.125 24.2962 50.125 25.125V45.5L61.4375 53.9375C61.7627 54.1882 62.0343 54.5017 62.2361 54.8593C62.4379 55.2169 62.566 55.6113 62.6126 56.0193C62.6592 56.4272 62.6235 56.8404 62.5075 57.2343C62.3916 57.6282 62.1977 57.9949 61.9375 58.3125Z" fill="#F89E02"/>
<path d="M47 0.125C37.729 0.125 28.6662 2.87417 20.9577 8.02486C13.2491 13.1756 7.24103 20.4964 3.69317 29.0617C0.145311 37.627 -0.782971 47.052 1.02571 56.1449C2.83439 65.2377 7.2988 73.59 13.8544 80.1456C20.41 86.7012 28.7623 91.1656 37.8552 92.9743C46.948 94.783 56.373 93.8547 64.9383 90.3069C73.5036 86.759 80.8245 80.7509 85.9752 73.0424C91.1259 65.3338 93.875 56.271 93.875 47C93.8601 34.5725 88.9168 22.6584 80.1292 13.8708C71.3417 5.08327 59.4275 0.139886 47 0.125ZM47 86.2719C39.2328 86.2719 31.64 83.9686 25.1817 79.6534C18.7235 75.3381 13.6899 69.2047 10.7175 62.0287C7.74514 54.8527 6.96743 46.9564 8.48274 39.3384C9.99806 31.7204 13.7383 24.7229 19.2306 19.2306C24.7229 13.7383 31.7205 9.99804 39.3385 8.48272C46.9565 6.96741 54.8527 7.74512 62.0287 10.7175C69.2047 13.6899 75.3382 18.7235 79.6534 25.1817C83.9686 31.6399 86.2719 39.2328 86.2719 47C86.262 57.4125 82.1212 67.3957 74.7585 74.7584C67.3957 82.1212 57.4125 86.2619 47 86.2719Z" fill="#F89E02"/>
</svg>
