<svg width="78" height="100" viewBox="0 0 78 100" fill="none" xmlns="http://www.w3.org/2000/svg">
<path d="M38.9961 36.0391C24.9121 36.0391 13.4531 47.4824 13.4531 61.5469C13.4531 75.6094 24.9121 87.0488 38.9961 87.0488C53.0801 87.0488 64.5391 75.6074 64.5391 61.5469C64.5391 47.4824 53.082 36.0391 38.9961 36.0391ZM26.0078 57.0996V53.3047C26.0078 50.6934 28.1328 48.5684 30.7422 48.5684C33.3555 48.5684 35.4824 50.6934 35.4824 53.3047V57.0996C35.4824 59.709 33.3555 61.8301 30.7422 61.8301C28.1328 61.832 26.0078 59.709 26.0078 57.0996ZM32.0254 73.6992C31.7188 74.1172 31.2441 74.3379 30.7637 74.3379C30.4434 74.3379 30.1191 74.2402 29.8418 74.0352C29.1465 73.5254 28.9941 72.5469 29.5059 71.8516L45.9668 49.3887C46.4766 48.6934 47.4551 48.543 48.1504 49.0527C48.8457 49.5625 48.9981 50.541 48.4863 51.2363L32.0254 73.6992ZM51.9844 69.7852C51.9844 72.3965 49.8594 74.5215 47.25 74.5215C44.6387 74.5215 42.5156 72.3965 42.5156 69.7852V65.9902C42.5156 63.3809 44.6406 61.2598 47.25 61.2598C49.8613 61.2598 51.9844 63.3828 51.9844 65.9902V69.7852Z" fill="#F89E02"/>
<path d="M32.3594 57.0996V53.3047C32.3594 52.416 31.6348 51.6934 30.7441 51.6934C29.8711 51.6934 29.1348 52.4316 29.1348 53.3047V57.0996C29.1348 57.9844 29.8574 58.7051 30.7441 58.7051C31.6348 58.707 32.3594 57.9863 32.3594 57.0996ZM47.25 64.3848C46.3613 64.3848 45.6406 65.1055 45.6406 65.9902V69.7852C45.6406 70.6738 46.3633 71.3965 47.25 71.3965C48.1367 71.3965 48.8594 70.6738 48.8594 69.7852V65.9902C48.8594 65.1055 48.1367 64.3848 47.25 64.3848Z" fill="#F89E02"/>
<path d="M73.336 40.4082C70.6055 33.4472 66.6251 26.5722 61.502 19.9746C61.2952 19.7073 61.0072 19.5144 60.6813 19.4248C60.3554 19.3352 60.0093 19.3538 59.6948 19.4777C59.3804 19.6017 59.1147 19.8243 58.9377 20.1122C58.7606 20.4001 58.6818 20.7377 58.713 21.0742C59.0255 24.498 58.879 27.498 58.2774 29.9922C58.1544 30.5078 57.7325 30.8476 57.2071 30.8594C56.6759 30.8633 56.2364 30.5469 56.0919 30.039C54.0919 23.0879 51.3126 17.4648 47.5938 12.8515C42.7403 6.83006 36.2013 2.52928 28.1602 0.0663872C27.8853 -0.0180517 27.5924 -0.0247952 27.3139 0.0469028C27.0353 0.118601 26.7821 0.265946 26.5821 0.472637C26.3819 0.679019 26.2424 0.93659 26.179 1.21706C26.1156 1.49753 26.1307 1.79005 26.2227 2.06248C29.4434 11.5625 26.5235 15.9629 22.4825 22.0527C20.4454 25.123 18.1915 28.5195 16.3673 33.0351C14.543 30.2656 11.6153 27.9433 8.42586 26.9375C8.15033 26.8507 7.85613 26.8419 7.57593 26.9122C7.29573 26.9825 7.0405 27.1291 6.83857 27.3357C6.63664 27.5423 6.49591 27.8008 6.43202 28.0825C6.36814 28.3642 6.38358 28.6581 6.47664 28.9316C7.94149 33.2363 6.31649 40.9394 4.55477 44.3515C4.55086 44.3574 4.54891 44.3633 4.545 44.3691C2.1036 49.248 0.752033 54.5098 0.53133 60.0058C0.115315 70.2695 3.72859 80.0781 10.7052 87.6269C17.6798 95.1758 27.1798 99.5586 37.4532 99.9687C37.9786 99.9902 38.5001 100 39.0216 100C59.5372 99.998 76.6309 83.7539 77.4649 63.0898C77.7579 55.7734 76.3692 48.1426 73.336 40.4082ZM38.9962 90.1758C23.1895 90.1758 10.3282 77.334 10.3282 61.5488C10.3282 45.7598 23.1876 32.916 38.9962 32.916C54.8048 32.916 67.6641 45.7617 67.6641 61.5488C67.6641 77.334 54.8048 90.1758 38.9962 90.1758Z" fill="#F89E02"/>
</svg>
