<svg width="100" height="88" viewBox="0 0 100 88" fill="none" xmlns="http://www.w3.org/2000/svg">
<path d="M50 34.3577C59.3845 34.3577 66.9922 26.75 66.9922 17.3655C66.9922 7.98095 59.3845 0.373291 50 0.373291C40.6155 0.373291 33.0078 7.98095 33.0078 17.3655C33.0078 26.75 40.6155 34.3577 50 34.3577Z" fill="#F89E02"/>
<path d="M84.375 34.3574C90.3077 34.3574 95.1172 29.548 95.1172 23.6152C95.1172 17.6825 90.3077 12.873 84.375 12.873C78.4423 12.873 73.6328 17.6825 73.6328 23.6152C73.6328 29.548 78.4423 34.3574 84.375 34.3574Z" fill="#F89E02"/>
<path d="M15.625 34.3574C21.5577 34.3574 26.3672 29.548 26.3672 23.6152C26.3672 17.6825 21.5577 12.873 15.625 12.873C9.69225 12.873 4.88281 17.6825 4.88281 23.6152C4.88281 29.548 9.69225 34.3574 15.625 34.3574Z" fill="#F89E02"/>
<path d="M26.209 44.0042C21.9805 40.5398 18.151 40.9984 13.2617 40.9984C5.94922 40.9984 0 46.9124 0 54.18V75.5101C0 78.6663 2.57617 81.2327 5.74414 81.2327C19.4211 81.2327 17.7734 81.4802 17.7734 80.6429C17.7734 65.5284 15.9832 54.4443 26.209 44.0042Z" fill="#F89E02"/>
<path d="M54.6505 41.0762C46.1106 40.3639 38.6878 41.0844 32.2852 46.3691C21.571 54.9512 23.6329 66.5064 23.6329 80.6426C23.6329 84.3826 26.6759 87.4824 30.4727 87.4824C71.6997 87.4824 73.3405 88.8123 75.7852 83.3984C76.587 81.5676 76.3673 82.1494 76.3673 64.6348C76.3673 50.7234 64.3218 41.0762 54.6505 41.0762ZM86.7384 40.998C81.8223 40.998 78.014 40.5441 73.7911 44.0039C83.9405 54.3664 82.2266 64.6943 82.2266 80.6426C82.2266 81.4851 80.8589 81.2324 94.0509 81.2324C97.3321 81.2324 100 78.5742 100 75.3066V54.1797C100 46.9121 94.0509 40.998 86.7384 40.998Z" fill="#F89E02"/>
</svg>
