<svg width="49" height="48" viewBox="0 0 49 48" fill="none" xmlns="http://www.w3.org/2000/svg">
<path d="M16.0254 37.7704C16.5915 37.7704 17.0504 37.3115 17.0504 36.7455C17.0504 36.1794 16.5915 35.7205 16.0254 35.7205C15.4594 35.7205 15.0005 36.1794 15.0005 36.7455C15.0005 37.3115 15.4594 37.7704 16.0254 37.7704Z" fill="#F89E02"/>
<path d="M32.8484 37.7704C33.4145 37.7704 33.8734 37.3115 33.8734 36.7455C33.8734 36.1794 33.4145 35.7205 32.8484 35.7205C32.2824 35.7205 31.8235 36.1794 31.8235 36.7455C31.8235 37.3115 32.2824 37.7704 32.8484 37.7704Z" fill="#F89E02"/>
<path d="M24.4996 0C11.2453 0 0.500366 10.7457 0.500366 23.9996C0.500366 37.2535 11.2453 48 24.4996 48C37.7543 48 48.4997 37.2538 48.4997 23.9996C48.4997 10.7454 37.7543 0 24.4996 0ZM17.9409 33.2306H32.8485C34.7864 33.2306 36.3628 34.8076 36.3628 36.7455C36.3628 38.6834 34.7864 40.2603 32.8485 40.2603C30.9101 40.2603 29.3332 38.6834 29.3332 36.7455C29.3332 36.389 29.3876 36.045 29.4863 35.7205H19.3866C19.4858 36.045 19.5402 36.3887 19.5402 36.7455C19.5402 38.6834 17.9638 40.2603 16.0254 40.2603C14.087 40.2603 12.5106 38.6834 12.5106 36.7455C12.5106 35.0141 13.7701 33.5746 15.4204 33.2866L14.8025 29.8835L14.7958 29.8512L11.5184 13.6323L8.50743 13.6521L8.49079 11.1622L13.5531 11.1286L14.778 17.1898L37.4721 19.9107L34.5892 30.896H17.5167L17.9409 33.2306Z" fill="#F89E02"/>
</svg>
