<svg width="34" height="43" viewBox="0 0 34 43" fill="none" xmlns="http://www.w3.org/2000/svg">
<path fill-rule="evenodd" clip-rule="evenodd" d="M17 12C15.8065 12 14.6619 12.4741 13.818 13.318C12.9741 14.1619 12.5 15.3065 12.5 16.5C12.5 17.6935 12.9741 18.8381 13.818 19.682C14.6619 20.5259 15.8065 21 17 21C18.1935 21 19.3381 20.5259 20.182 19.682C21.0259 18.8381 21.5 17.6935 21.5 16.5C21.5 15.3065 21.0259 14.1619 20.182 13.318C19.3381 12.4741 18.1935 12 17 12ZM9.5 16.5C9.5 14.5109 10.2902 12.6032 11.6967 11.1967C13.1032 9.79018 15.0109 9 17 9C18.9891 9 20.8968 9.79018 22.3033 11.1967C23.7098 12.6032 24.5 14.5109 24.5 16.5C24.5 18.4891 23.7098 20.3968 22.3033 21.8033C20.8968 23.2098 18.9891 24 17 24C15.0109 24 13.1032 23.2098 11.6967 21.8033C10.2902 20.3968 9.5 18.4891 9.5 16.5Z" fill="white"/>
<path fill-rule="evenodd" clip-rule="evenodd" d="M17 3C13.4196 3 9.9858 4.42232 7.45406 6.95406C4.92232 9.4858 3.5 12.9196 3.5 16.5C3.5 22.71 6.968 28.365 10.6325 32.5785C12.5629 34.7871 14.6946 36.8113 17 38.625C19.3054 36.8113 21.4371 34.7871 23.3675 32.5785C27.032 28.3635 30.5 22.7085 30.5 16.5C30.5 12.9196 29.0777 9.4858 26.5459 6.95406C24.0142 4.42232 20.5804 3 17 3ZM17 40.5L16.139 41.7285L16.1345 41.7255L16.1225 41.7165L16.085 41.6895C15.8693 41.5339 15.6558 41.3754 15.4445 41.214C15.0155 40.887 14.4095 40.407 13.685 39.792C11.7849 38.1777 10.0075 36.4244 8.3675 34.5465C4.532 30.1365 0.5 23.7915 0.5 16.5C0.5 12.1239 2.23839 7.92709 5.33274 4.83274C8.42709 1.73839 12.6239 0 17 0C21.3761 0 25.5729 1.73839 28.6673 4.83274C31.7616 7.92709 33.5 12.1239 33.5 16.5C33.5 23.79 29.468 30.135 25.6325 34.5465C23.9925 36.4244 22.2151 38.1777 20.315 39.792C19.5809 40.4161 18.8265 41.0159 18.053 41.5905L17.915 41.6895L17.8775 41.7165L17.8655 41.7255L17.8625 41.727C17.861 41.7285 17.8595 41.7285 17 40.5ZM17 40.5L17.861 41.73C17.6087 41.9068 17.3081 42.0017 17 42.0017C16.6919 42.0017 16.3913 41.9053 16.139 41.7285L17 40.5Z" fill="white"/>
</svg>
