<svg width="40" height="59" viewBox="0 0 40 59" fill="none" xmlns="http://www.w3.org/2000/svg">
<path d="M27.6472 47.4106C26.7851 48.0077 25.7062 47.5812 24.7332 48.0278C25.4613 48.087 26.1941 48.0465 26.9111 47.9073C28.3278 47.5762 29.8301 47.8522 31.2468 47.4658C31.8417 47.3053 32.0534 47.8722 32.487 48.0328C33.6162 48.4442 34.6699 48.1532 35.7488 47.9174C36.1572 47.8827 36.5564 47.7774 36.9285 47.6063C37.7553 47.0444 38.698 47.6063 39.55 47.235C39.4174 47.4194 39.2466 47.5735 39.0492 47.6869C38.8519 47.8002 38.6324 47.8703 38.4056 47.8923C36.2428 47.9977 34.2565 48.7402 32.2954 49.5832C31.6328 49.868 30.9391 50.0751 30.2284 50.2003C29.815 50.2705 29.4873 50.411 29.5781 50.7773C29.5953 50.88 29.6347 50.9777 29.6935 51.0639C29.7523 51.15 29.8291 51.2224 29.9186 51.2763C30.0081 51.3301 30.1083 51.3641 30.2122 51.3758C30.3162 51.3876 30.4214 51.3768 30.5208 51.3443C30.6973 51.2991 30.9443 51.3192 31.0552 51.2038C31.4081 50.8475 31.8719 50.8425 31.9778 51.2389C32.129 51.7958 31.4131 51.3995 31.2619 51.6403C31.1107 51.8811 30.1629 51.565 30.8737 52.2875C31.0048 52.423 30.7275 52.4531 30.5914 52.4933C30.2133 52.5867 29.8537 52.7427 29.5276 52.9549C30.8636 52.6036 31.7862 54.0386 33.1474 53.6874C30.8687 54.9066 28.6706 56.2513 25.8575 56.7831C26.649 57.3752 27.2035 56.9236 27.7178 57.044C27.9547 57.0992 28.3328 56.9788 28.2824 57.4053C28.2471 57.6963 27.9698 57.7415 27.7531 57.621C27.2792 57.3601 26.8708 57.7415 26.412 57.7013C25.3735 57.606 24.3148 58.0826 23.2763 57.3802C22.9385 57.1544 22.0966 56.8534 21.7638 57.7164C21.7638 57.7515 21.6126 57.7716 21.5471 57.7515C20.569 57.4354 19.591 57.8067 18.6079 57.7966C17.3887 57.7916 16.1707 57.8721 14.963 58.0375C13.9547 58.1679 12.9464 57.9472 11.9381 58.3486C11.394 58.4938 10.8327 58.5648 10.2694 58.5593C8.38389 58.75 6.49336 58.9456 4.58266 58.9958C5.48003 58.7349 6.4984 58.6647 7.24957 58.178C8.762 57.1996 10.4257 57.4906 12.0188 57.0641C10.9248 57.0641 9.81566 56.9838 8.72671 57.0892C7.63776 57.1946 6.54881 56.6376 5.55061 57.044C4.64819 57.4103 3.77603 56.5423 2.89882 57.2247C2.52071 57.5207 0.146201 56.1409 0 55.6392C0 55.5589 0.0957847 55.3983 0.18653 55.3281C1.38135 54.3949 0.927618 53.1305 0.499096 52.1922C0.141155 51.3944 0.418433 51.0884 0.836871 50.687C2.62154 48.971 4.50703 47.3554 6.21104 45.5692C9.10986 42.5187 12.5985 40.0852 15.2856 36.8289C15.452 36.6332 15.8301 36.5279 15.6536 36.1466H15.6284C15.7293 36.1716 15.8654 36.2419 15.8956 36.0863C15.9259 35.9308 15.7797 35.8756 15.6284 35.8907H15.6587C16.5296 34.7714 17.4602 33.6995 18.4466 32.6795C19.7523 31.4452 20.564 29.8949 21.4714 28.3997C23.434 24.981 24.8604 21.284 25.7012 17.4367C25.9533 16.368 26.0138 15.239 24.8643 14.3861C23.1654 13.1217 21.6983 11.5814 19.4045 11.2653C16.8384 10.914 14.9025 12.1684 12.9464 13.4378C12.1222 13.9965 11.385 14.6727 10.7584 15.4448C10.4402 15.8564 9.97405 16.1293 9.45791 16.206C8.94176 16.2828 8.41583 16.1574 7.99066 15.8562C7.65288 15.6254 6.98237 15.4749 6.98237 15.3544C6.90171 14.065 6.47823 12.8156 6.71518 11.476C7.17395 9.15795 8.75696 7.58248 10.2795 6.02709C12.2092 4.09825 14.5316 2.60299 17.0904 1.64188C17.8815 1.35721 18.7041 1.16853 19.5406 1.07993C21.4024 0.782186 23.2947 0.721489 25.1718 0.899303C26.3566 1.03477 27.4203 1.86766 28.2975 2.85107C29.3058 3.99504 30.2637 5.26444 31.7005 5.96186C31.8773 6.03522 32.0368 6.14452 32.1688 6.28276C32.3007 6.42099 32.4022 6.58512 32.4668 6.76465C32.9709 8.3953 34.2464 9.7199 34.2363 11.5462C34.2167 11.7561 34.2416 11.9676 34.3093 12.1673C34.3771 12.3669 34.4862 12.5502 34.6296 12.7053C34.9018 12.9712 34.8111 13.3876 34.4279 13.3425C33.6767 13.2622 33.8734 13.7589 33.949 14.0549C34.5439 16.4683 33.4448 18.5004 32.4718 20.5776C31.6955 22.2182 30.8132 23.8138 30.052 25.4645C29.6175 26.273 29.0383 26.9956 28.3429 27.5969C27.1632 28.781 26.4221 30.231 25.5197 31.6108C24.6173 32.9906 23.6342 34.1195 22.6612 35.3538C21.0076 37.441 19.2885 39.4781 17.6198 41.5503C16.8837 42.4685 15.704 42.6842 14.8369 43.3616C13.148 44.6761 11.5197 46.071 9.63417 47.6214C11.2273 47.5762 12.3767 46.8788 13.6673 46.8888C14.0605 46.8888 13.6673 46.3319 14.0152 46.091C14.4034 47.225 15.3512 46.7383 16.0317 46.5928C19.2885 45.9355 22.5856 46.091 25.8625 46.0308C26.9565 46.0308 28.0505 46.0308 29.1445 45.9757C29.3966 45.9757 29.7091 45.7449 29.7948 46.1563C29.8805 46.5677 29.4974 46.6028 29.2907 46.5326C28.4084 46.2566 28.2824 47.2099 27.7127 47.4407C27.2993 47.1648 28.1765 46.939 27.7732 46.7634C27.5161 46.6379 27.1935 46.4071 26.8456 46.6982C26.5885 46.9139 26.2759 47.1046 25.9785 46.6982C26.5018 47.0057 27.0626 47.2452 27.6472 47.4106ZM4.88515 56.8885C4.89777 56.8639 4.90357 56.8364 4.90196 56.8088C4.90035 56.7812 4.89138 56.7545 4.87598 56.7315C4.86057 56.7085 4.83929 56.69 4.81432 56.6779C4.78935 56.6658 4.76159 56.6606 4.7339 56.6627C4.59778 56.6627 4.39612 56.6978 4.33562 56.7932C4.27513 56.8885 4.36587 57.0541 4.53224 57.0792C4.56797 57.0906 4.60567 57.0948 4.64306 57.0913C4.68045 57.0879 4.71674 57.0769 4.74974 57.0591C4.78274 57.0413 4.81175 57.0169 4.83503 56.9876C4.8583 56.9583 4.87536 56.9246 4.88515 56.8885Z" fill="#F89E02"/>
</svg>
