<svg width="47" height="80" viewBox="0 0 47 80" fill="none" xmlns="http://www.w3.org/2000/svg">
<path d="M46.9797 43.1605C46.736 42.7949 46.4314 42.6155 46.1944 43.0984C46.0455 43.4158 45.9643 43.878 46.6006 43.9194C46.4855 43.3123 46.1064 43.6779 45.9237 43.7193C43.978 44.1067 41.9663 43.9591 40.0952 43.2916C39.5875 43.126 38.7413 43.3744 38.5924 43.809C38.362 44.5191 38.362 45.2858 38.5924 45.9959C38.7413 46.4098 39.5536 45.8165 40.0478 46.1753C38.2606 46.7824 38.2606 46.7824 38.484 48.6795C41.0294 48.4588 43.5747 48.2725 46.1064 47.9896C46.824 47.9207 46.8511 48.4105 46.824 48.8037C46.824 49.4177 46.3231 48.8865 46.1471 48.9693C45.0233 49.5902 43.8048 49.3004 42.6405 49.4453C41.4761 49.5902 40.305 49.7419 39.1339 49.8523C37.78 49.9834 38.5923 51.0941 38.3554 51.715C38.1591 52.2117 38.3554 52.7222 39.1881 52.4601C37.4822 53.5156 38.308 55.0954 38.4163 56.3441C38.9487 62.21 38.4606 68.1257 36.9744 73.8187C36.9744 72.9357 36.3313 72.2665 36.1756 71.4248C36.1756 71.3075 35.9049 70.7832 35.6544 71.3765C35.4852 71.7698 35.1196 72.1078 35.0519 72.5079C34.7789 73.5685 34.2508 74.5431 33.5153 75.3433C33.0886 75.9471 32.8525 76.669 32.8383 77.413C31.9515 76.8611 32.4524 75.8193 31.8296 75.226C31.0241 76.4678 31.3355 78.1166 30.6856 79.455C30.1982 79.3998 30.4419 78.9238 30.1982 78.7237C29.5213 78.8755 29.9342 79.7034 29.4671 80C28.9729 78.7306 29.6431 77.2957 28.8714 75.9918C28.3231 76.4057 28.9933 76.9645 28.4111 77.2612C27.8831 76.4609 28.1471 75.3916 27.7341 74.5017C27.2603 74.5844 27.7341 75.1295 27.3144 75.295C26.976 75.2054 27.0572 74.1084 26.4683 74.6052C26.0621 74.9225 25.9538 75.6814 25.7913 76.2609C25.5882 76.9507 26.0553 77.6406 25.7168 78.6272C25.2024 77.1853 25.1414 75.7986 24.3629 74.6948C24.2208 74.4948 24.2411 74.0602 23.9365 74.1153C22.7518 74.3499 22.7721 73.4255 22.5826 72.7356C22.129 70.9212 21.3912 69.1896 21.4047 67.2511C21.4043 65.1892 21.5719 63.1309 21.9056 61.0973C22.3118 58.6897 22.305 56.2682 22.6638 53.8605C22.7044 53.557 22.9549 52.9016 22.4337 52.9085C21.9124 52.9154 20.9308 52.9085 21.2761 54.0054C21.3235 54.171 21.2761 54.2468 21.1678 54.4055C20.5924 54.3296 21.0662 53.7156 20.6601 53.4949C19.6717 54.0054 20.0305 55.3024 19.3062 56.213C19.3603 55.0678 19.3671 54.0813 19.4619 53.1085C19.5093 52.6739 19.2926 52.6946 19.0219 52.667C16.7593 52.3278 14.4582 52.3581 12.205 52.7567C11.2234 52.9775 10.0862 53.212 9.07075 52.1565C10.6819 51.9771 12.2524 52.805 13.5928 51.6115C12.9447 51.1879 12.1668 51.021 11.4062 51.1424C10.3096 51.3425 9.40922 50.7699 8.3938 50.7216C7.96056 50.7216 8.00118 49.9489 7.44608 49.6798C6.09219 48.99 6.01096 48.9486 5.99066 50.4387C5.99066 51.6184 4.94816 50.8319 4.53523 51.4942C4.42015 50.8871 4.81954 50.8044 4.89401 50.556C5.05648 50.0593 5.69279 49.4453 4.62999 49.121C4.46075 49.0728 4.33891 48.5691 4.34568 48.2794C4.34568 45.9752 3.98013 45.4647 1.6379 44.7541C1.18435 44.623 0.581869 44.2574 1.10989 43.7676C1.85453 43.0777 1.38066 42.9121 0.872951 42.581C0.636284 42.4199 0.436797 42.2084 0.28833 41.9609C0.139863 41.7135 0.0459541 41.4362 0.0131141 41.1481C-0.019726 40.86 0.00929167 40.5681 0.0981454 40.2926C0.186999 40.017 0.333569 39.7645 0.527702 39.5524C2.55854 37.3931 3.60781 34.7233 5.02263 31.9638C5.11361 33.2832 4.71765 34.5897 3.91243 35.627C2.91055 36.7377 2.78871 38.2486 2.08469 39.4834C1.96284 39.6973 2.08468 40.0354 1.9696 40.263C1.29265 41.7049 1.29266 41.6428 2.61271 41.8221C3.17457 41.8911 2.92409 41.3323 3.14748 41.1323C4.2165 40.0124 4.87193 38.5497 5.00232 36.993C5.00422 35.6866 5.27882 34.3955 5.80789 33.2056C7.03993 30.9083 7.33101 28.3764 8.15011 25.9756C8.96922 23.5748 9.9237 21.25 10.9324 18.9182C11.941 16.5864 13.5589 14.4478 13.7349 11.7641C16.551 7.50758 18.1215 2.18172 23.6454 0.277658C26.5698 -0.729565 30.4555 1.10551 31.2204 4.13408C31.3251 4.47551 31.3605 4.83508 31.3244 5.19089C31.2883 5.54671 31.1815 5.89131 31.0106 6.20371C28.4585 10.7362 26.0079 15.2894 23.3543 19.7046C21.5401 22.7263 19.8748 25.8308 18.3246 29.0042C17.2618 31.1773 16.2396 33.3642 15.1633 35.5166C14.8789 36.103 14.8586 36.7308 14.5675 37.2896C14.4185 37.3781 14.2918 37.5009 14.1978 37.6483C14.1037 37.7957 14.0449 37.9635 14.026 38.1382C14.026 38.1865 14.2223 38.2831 14.3239 38.2831C14.906 38.2831 14.6556 37.7794 14.7842 37.5035C15.212 37.9702 15.6057 38.4682 15.9621 38.9936C16.4156 39.4421 16.6932 40.1043 17.492 40.1595C19.5228 40.2975 21.5875 40.4907 23.6319 40.6976C24.3088 40.7597 24.5051 40.5252 24.6608 39.856C24.9316 38.7039 24.8436 37.5173 25.0941 36.4066C25.1181 36.3024 25.1197 36.1942 25.0987 36.0894C25.0776 35.9846 25.0345 35.8856 24.9722 35.7995C24.715 35.5925 24.5254 35.8685 24.2953 36.0134C23.7831 36.3399 23.3852 36.8227 23.158 37.3931C23.8823 36.4894 23.7605 34.944 25.2362 34.4956C25.5747 34.399 25.4393 33.8057 25.4325 33.3918C25.4325 31.5016 25.6153 30.9497 27.2874 30.5564C28.1164 30.3661 28.8948 29.9942 29.5687 29.4664C31.2001 28.1418 33.1497 28.2453 34.9842 27.8383C35.7695 27.6658 36.5344 27.2312 37.3941 27.3899C37.7868 27.4658 38.1862 27.2726 38.1049 28.0798C37.9196 30.5981 38.1857 33.1299 38.8902 35.5511C39.1881 36.7032 38.8902 38.0209 38.8157 39.2627C38.748 40.1664 38.6262 41.0288 40.0275 40.7252C39.9395 40.9115 39.9259 41.0012 39.8785 41.0288C39.5265 41.2219 38.7819 40.8287 38.8157 41.4703C38.8496 42.1119 39.5604 41.8911 39.9936 41.8842C41.2743 41.9327 42.5566 41.8634 43.8251 41.6773C44.0688 41.629 44.2381 41.7256 44.3735 42.0498C43.0196 42.5258 41.6318 42.3602 40.3118 42.6776C40.0207 42.7397 39.5942 42.6776 39.6348 43.0984C39.6755 43.5192 40.041 43.3675 40.3998 43.3744C42.5999 43.4158 44.7864 42.5672 47 43.2226L46.9797 43.1605ZM38.985 43.2778C38.9511 43.2778 38.9173 43.1881 38.897 43.1881C38.8323 43.2094 38.7709 43.2396 38.7142 43.2778C38.748 43.2778 38.7819 43.3675 38.8022 43.3606C38.8652 43.3467 38.9264 43.3259 38.985 43.2985V43.2778Z" fill="#F89E02"/>
</svg>
