<svg width="40" height="69" viewBox="0 0 40 69" fill="none" xmlns="http://www.w3.org/2000/svg">
<path d="M25.883 52.3243C25.9297 52.4812 25.7169 52.7427 25.9868 52.8008C26.2566 52.8589 26.5577 52.6614 26.5058 52.4173C26.3916 51.627 26.8795 51.5979 27.3206 51.3771C27.4843 51.3 27.631 51.1838 27.7504 51.0366C27.8699 50.8895 27.9591 50.7149 28.012 50.525C28.0649 50.3352 28.0801 50.1348 28.0566 49.9377C28.0331 49.7406 27.9715 49.5516 27.876 49.3839C28.3171 49.1747 28.7531 48.9539 28.7012 48.2915C28.717 47.5536 28.8397 46.8236 29.0645 46.1298C29.3188 44.8804 29.7444 43.6078 29.6873 42.3642C29.5146 40.3133 28.9423 38.3297 28.0109 36.5532C27.9382 36.4021 27.6891 36.1929 27.6165 36.2336C26.5473 36.8147 26.7808 35.6525 26.7497 35.2864C26.594 33.4734 26.5006 33.2467 24.9903 32.3809C24.9903 33.0608 25.9868 33.0898 25.7428 34.1242C25.5456 34.9784 26.3034 35.8675 26.677 36.7101C27.4308 38.3212 27.9112 40.0747 28.0939 41.8819V41.8529C27.5749 41.7773 27.4919 41.3589 27.331 40.8998C26.2099 37.6864 24.8398 34.6472 22.608 32.1833C21.6271 31.0967 18.5805 30.44 17.3141 31.056C16.5275 31.5135 15.6757 31.8143 14.7969 31.9451C12.477 32.0845 10.3075 32.9388 8.04982 33.4211C7.86298 33.4617 7.65019 33.7349 7.47891 33.5024C6.4409 32.102 4.93577 32.4913 3.62268 32.2763C2.61581 32.1078 2.03452 31.6952 2.01895 30.5679C1.9309 29.9755 2.00697 29.3671 2.23693 28.8245C2.49124 29.2081 2.59504 29.6381 2.9324 29.8763C3.1859 30.0831 3.47525 30.2282 3.78185 30.3023C4.08845 30.3764 4.4055 30.3777 4.7126 30.3064C5.23161 30.1262 4.79045 29.3475 4.93577 28.8768C5.37174 27.4357 4.41676 26.8488 3.61749 26.2038C3.29052 25.9365 2.79227 25.7738 2.81303 26.6222C2.84184 26.7807 2.82583 26.9453 2.76724 27.0932C2.70864 27.2411 2.61036 27.3649 2.48605 27.4473C2.67809 26.5466 2.40301 25.8261 2.36149 25.0939C2.15389 21.706 1.58817 18.3298 1.80615 14.9246C1.87362 13.9077 1.57779 12.635 2.74556 11.9784C2.87531 11.9087 2.85974 11.4786 2.89607 11.2113C3.2438 8.36975 4.87349 6.73103 7.13637 5.84776C10.6041 4.43585 14.1603 3.3132 17.776 2.48899C20.1998 1.97762 22.6028 1.3849 25.0422 1.09434C26.0802 0.972313 27.1182 0.646897 28.1562 1.20476C28.4261 1.35003 28.8309 1.16407 29.1942 1.16407C30.0307 1.10304 30.8698 1.10304 31.7062 1.16407C33.5799 1.40814 33.8861 1.94856 33.4709 4.00566C33.3463 4.62744 33.3463 4.62745 33.9587 4.77272C33.9747 4.80722 33.9833 4.84541 33.9837 4.88426C33.9842 4.92311 33.9766 4.96155 33.9615 4.99652C33.9464 5.0315 33.9242 5.06205 33.8967 5.08574C33.8692 5.10943 33.8371 5.12561 33.803 5.133C32.246 5.62113 31.5505 7.37025 30.2167 8.19541C30.0237 8.31185 29.8624 8.48462 29.75 8.69538C29.6376 8.90613 29.5783 9.14702 29.5783 9.39248C29.5783 10.2351 28.6545 10.1653 28.1926 10.3513C26.2047 11.1474 24.0872 11.3857 22.0112 11.8099C21.5596 11.9028 21.1133 11.1067 20.7033 11.8447C19.5562 10.8394 18.238 12.1353 17.0702 11.5135C16.9612 11.4612 16.8315 11.5135 16.6757 11.374C16.2865 11.0079 16.0893 11.2055 16.0996 11.7576C16.0996 11.7924 16.1879 12.9198 15.4249 12.0365C14.5478 11.0312 12.9648 11.8273 12.7209 13.251C12.2019 16.1565 12.7209 19.1666 12.477 22.1186C12.477 22.1942 12.56 22.2988 12.6171 22.3743C12.8922 22.6997 13.079 23.0251 13.6551 22.9554C14.5737 22.8188 15.507 22.878 16.4059 23.1297C15.4716 23.3796 14.6309 23.06 13.9561 23.6004L15.8557 23.9898C15.8142 24.3559 15.5028 24.1118 15.29 24.3617C15.6377 24.5709 15.9699 24.7161 16.2554 24.3617C16.463 24.1176 16.6602 24.0014 16.8834 24.1641C17.2934 24.4721 17.3556 24.1234 17.4439 23.8387C17.5321 23.5539 17.7657 23.1239 17.0598 23.1065C18.3054 23.0019 19.4213 23.2634 20.5527 23.1588C19.9507 23.2221 19.3527 23.3269 18.7622 23.4726C19.0217 24.1932 19.5718 23.9433 19.9403 23.92C22.9275 23.7505 25.9061 24.4071 28.6129 25.8319C28.9192 25.983 29.7081 26.012 28.9866 26.7616C28.8465 26.9011 28.9192 27.1393 29.1579 27.1684C29.9883 27.273 30.5489 27.9645 31.2339 28.3655C31.7062 28.6328 32.0436 27.9296 32.5055 28.1505C32.4173 28.3829 32.5834 28.3655 32.6975 28.4003C32.6954 28.4318 32.6991 28.4634 32.7082 28.4933C32.7174 28.5231 32.7318 28.5506 32.7508 28.574C32.7697 28.5974 32.7927 28.6162 32.8184 28.6293C32.844 28.6424 32.8718 28.6495 32.9 28.6502C32.9327 28.7604 32.9891 28.8598 33.0642 28.9399C33.1393 29.0199 33.2308 29.0781 33.3307 29.1093C33.3307 29.2604 33.3307 29.4056 33.5487 29.3301V29.5161L33.7304 29.5044L33.5747 29.4056C33.5747 29.2546 33.5747 29.1093 33.3723 29.1616C33.4709 28.8304 33.2477 28.7141 33.066 28.5805L32.8013 28.4178C32.8013 28.226 32.6508 28.226 32.5211 28.2376C32.3965 27.8715 33.1231 27.8483 32.7858 27.2962C32.6145 27.0231 33.0297 27.0347 33.1906 27.1219C33.5166 27.2509 33.8178 27.4481 34.0781 27.703C35.6351 29.7311 37.2908 31.6778 38.4897 34.0196C38.827 34.6762 39.2838 35.5363 39.045 36.0767C38.8063 36.6171 39.1436 36.9832 39.2474 36.96C39.7664 36.8554 39.7042 37.2738 40 37.7096C39.5952 37.4946 39.6938 37.0471 39.372 37.1285C39.3357 37.1808 39.2474 37.2505 39.2578 37.2796C40.0311 39.4703 39.0502 41.6437 39.1852 43.8344C39.2526 44.9966 39.1436 46.1588 39.1177 47.321C39.1177 47.3675 39.3824 47.321 39.1177 47.4779C38.5416 47.7859 38.6765 48.2043 38.9568 48.7912C39.0454 48.9232 39.1078 49.0748 39.14 49.2359C39.1722 49.397 39.1733 49.5639 39.1434 49.7255C39.1134 49.8872 39.053 50.0398 38.9663 50.1733C38.8795 50.3068 38.7683 50.418 38.6402 50.4997C38.259 50.8882 38.0081 51.4111 37.9292 51.9815C37.4932 53.9921 36.0867 55.3054 35.1317 56.9267C34.7372 57.5949 34.4155 58.3213 33.9899 58.9779C32.8013 60.8084 30.8187 61.3605 29.3811 62.7725C28.4157 63.7255 27.0455 63.9347 26.0283 64.8122C25.883 64.9401 25.4366 65.1667 25.4418 64.8645C25.4418 64.4752 25.2186 63.8301 25.8259 63.6384C27.3981 63.133 28.7774 62.0606 29.7496 60.5876C30.1285 60.0472 30.9744 59.931 31.016 59.0012H31.1769V58.8733L31.0367 58.9954C29.3396 60.361 27.7618 61.9009 25.6857 62.6447C24.6944 62.9992 23.8588 63.8766 22.8468 64.5914C23.5267 64.5914 23.5578 64.8296 23.1426 65.1725C23.371 65.1725 23.6149 64.789 23.8173 65.3003C23.9471 65.6432 23.9626 65.6839 23.6512 65.9337C23.3398 66.1836 23.3969 66.3405 22.9194 66.4567C21.2067 66.8519 19.4888 67.2354 17.776 67.6189C17.3997 67.6726 17.0177 67.647 16.6498 67.5434C15.5599 67.34 14.7191 68.2814 13.598 68.2581C11.932 68.2175 10.3075 67.7991 8.64668 67.7991C8.24705 67.7991 7.82665 67.741 7.41664 67.7352C6.89763 67.7352 6.49799 67.7003 6.68483 66.9332C6.68483 66.8867 6.61217 66.7589 6.57584 66.7589C5.82328 66.8228 5.53782 65.8349 4.81121 65.8001C4.81121 65.4165 4.5569 65.5386 4.36486 65.5502H4.396C3.48774 64.8994 2.39263 64.7483 1.43765 64.1672C0.700662 63.7139 0.679901 62.7377 0 62.3483C0.161071 62.112 0.381458 61.9349 0.63295 61.8397C0.884441 61.7445 1.15559 61.7354 1.4117 61.8137C2.20579 61.9997 2.91683 62.5866 3.877 62.3948C3.08291 61.5871 2.10718 61.2326 1.33385 60.5469C0.944597 60.1983 1.04321 59.9949 1.04321 59.5416C1.04321 57.7286 1.884 58.3794 2.78708 58.5421C4.25068 58.8152 5.64682 59.6113 7.20903 59.2917C6.0086 59.0122 4.84275 58.5713 3.73686 57.9784C3.46179 57.8157 3.24899 57.8274 3.33723 57.3973C3.42546 56.9673 3.65382 57.223 3.85623 57.2172C4.44436 57.2962 5.02582 57.4283 5.59491 57.6123C6.48972 57.7469 7.39734 57.7332 8.28857 57.5717C9.59647 57.3683 10.9251 57.7518 12.2278 58.0075C15.0564 58.5886 17.7657 58.0075 20.4386 57.0254C21.1185 56.7814 21.7153 57.2521 22.3641 57.1184C22.4835 57.1184 22.7637 57.3625 22.7222 57.3741C22.281 57.4787 22.4004 58.3329 22.2032 58.1993C21.4351 57.7228 21.0043 58.5189 20.6981 58.8152C19.7968 59.6104 18.7463 60.1667 17.6255 60.4423C19.7016 60.8375 19.769 60.791 24.0664 56.1887C23.4696 55.84 22.9817 56.5547 22.1721 56.3165C23.5499 55.0424 24.753 53.5485 25.7428 51.8827L25.883 52.3243ZM33.9899 54.0676C34.4466 53.7364 34.1871 53.4052 34.1196 53.0914C34.0573 53.1262 33.9795 53.1379 33.938 53.1902C33.7304 53.4749 33.9016 53.7306 33.9899 54.0793V54.0676ZM17.0442 61.5348C17.0442 61.5348 16.9975 61.4767 16.9716 61.4651C16.8776 61.4236 16.7803 61.3924 16.6809 61.3721C16.6498 61.3721 16.5719 61.4941 16.5771 61.5057C16.7225 61.6975 16.8834 61.5638 17.0442 61.5348ZM15.7675 11.374C15.5565 11.2351 15.3219 11.1473 15.0787 11.1162C14.8355 11.0852 14.5892 11.1117 14.3558 11.1939C14.8177 11.5949 15.1499 11.5193 15.7675 11.374ZM31.6543 58.298V58.362H31.7114L31.6543 58.298ZM27.7773 41.2369C27.7514 41.3008 27.7047 41.3531 27.7047 41.4112C27.7047 41.4693 27.7514 41.5274 27.7773 41.5914C27.7773 41.5333 27.85 41.4809 27.85 41.4228C27.85 41.3647 27.8085 41.3008 27.7825 41.2369H27.7773ZM12.7261 22.9031C12.7261 22.9031 12.6742 22.8334 12.6586 22.8334C12.6128 22.8502 12.5678 22.8696 12.5237 22.8915C12.5237 22.8915 12.5704 22.9612 12.586 22.9612C12.6436 22.9513 12.6996 22.9317 12.752 22.9031H12.7261ZM33.4864 54.9102L33.4293 54.8231C33.4293 54.8521 33.3671 54.8754 33.3619 54.8986C33.3567 54.9219 33.3982 54.9567 33.419 54.9858L33.4864 54.9102ZM33.694 54.4628L33.6473 54.3872C33.6473 54.3872 33.5954 54.4279 33.5954 54.4511C33.5954 54.4744 33.5954 54.5035 33.6369 54.5267L33.694 54.4628Z" fill="#F89E02"/>
</svg>
