<svg width="40" height="66" viewBox="0 0 40 66" fill="none" xmlns="http://www.w3.org/2000/svg">
<path d="M33.6121 32.742C32.4199 32.4743 31.3737 31.671 30.091 31.6263C31.0015 32.1507 31.8314 32.8592 32.7519 33.2999C33.7579 33.7852 33.934 34.9734 34.6784 35.654C34.7841 35.7432 34.8193 35.9273 34.8847 36.0668C35.0356 36.3903 35.2569 36.7697 35.5536 36.7697C36.0064 36.7697 35.5989 36.1337 35.9711 35.8939C36.3937 36.5912 37.1381 37.043 37.0928 38.0416C37.5707 38.0416 37.1582 37.5507 37.5053 37.4837C37.8272 38.142 38.1994 38.817 38.4811 39.5366C38.6119 39.8825 39.2306 40.4738 38.1139 40.5463C37.6109 40.5463 37.8121 41.662 37.8876 42.2979C38.0687 43.6925 37.3242 44.9198 37.3846 46.2809C37.3846 46.3367 37.2035 46.465 37.1633 46.4427C36.9118 46.2921 36.8916 46.0411 36.9721 45.6617C37.1733 47.1512 36.7407 48.451 36.4691 49.7507C36.4188 49.9962 36.2629 50.1022 36.5647 50.2639C37.0677 50.5429 36.8765 50.0352 36.9118 49.8679C37.0274 49.3714 37.0928 48.8638 37.1834 48.345C37.5808 48.2557 37.5204 48.7466 37.6864 48.8526C38.3503 47.8541 38.2447 46.5152 39.1401 45.5055C39.7588 44.8194 39.6783 43.5308 39.4268 42.5378C39.2407 41.807 39.6732 41.0874 39.2658 40.3622C39.135 40.1279 39.5123 39.6872 39.96 39.2019C40.0706 44.3006 40.2014 49.126 36.6351 52.9081C36.1824 52.7129 36.5395 52.1606 36.2126 51.8984C34.7639 54.0964 34.0899 57.025 31.424 58.163C32.0025 58.336 32.5507 58.4308 32.8676 58.8827C32.9198 58.9587 32.9535 59.0483 32.9655 59.143C32.9774 59.2376 32.9673 59.3341 32.936 59.4231C32.9047 59.5122 32.8533 59.5908 32.7867 59.6515C32.7201 59.7121 32.6406 59.7528 32.5558 59.7696C32.5306 59.4963 32.5004 59.2118 32.4702 58.9273C32.3596 58.9273 32.259 58.9273 32.2439 58.9273C31.7962 59.8031 31.2077 59.6581 30.5689 59.2229C30.2218 58.9886 29.754 59.2564 29.754 59.4572C29.754 60.0151 29.251 59.9593 29.1605 60.3219C28.9931 60.2405 28.8074 60.2172 28.6279 60.255C28.4483 60.2928 28.2833 60.3901 28.1545 60.5339C27.4553 61.3539 26.9372 62.3859 25.8206 62.6648C25.735 62.6648 25.3176 62.8601 25.4886 63.3119C27.2692 63.8698 28.3859 61.9117 30.0659 61.856C29.5025 61.0192 29.0599 61.5547 28.4211 61.9397C28.565 61.3694 28.8788 60.87 29.3114 60.5227L30.2017 60.294L30.3375 60.4558L29.754 61.2479C30.5538 60.8128 31.1071 60.7626 31.1675 61.8058C31.1675 61.8337 31.2228 61.856 31.2479 61.8839C32.3596 62.888 31.424 63.0609 30.7449 63.1558C28.7681 63.4403 26.8517 64.2714 24.8095 64.0316C24.5027 63.9981 24.1154 64.1376 24.4373 63.5183C24.5731 63.2617 24.3065 62.9605 24.1556 63.1502C23.8387 63.563 23.7482 63.5574 23.6023 63.0609C23.5772 62.9717 23.3659 62.9549 23.2401 62.9047C22.9383 63.8475 22.0682 63.1334 21.4495 63.6913C22.4052 63.7861 21.4746 64.8795 22.3146 65.0915C21.5652 64.846 21.0068 65.2811 20.3932 65.4317C18.6427 65.8725 16.9778 65.1417 15.2826 64.8014C12.3803 64.2101 10.3985 61.9452 8.14001 60.1267C5.7759 58.2077 4.52845 55.3459 2.71764 52.9639C2.71764 51.2458 1.14325 50.448 0.740847 48.9196C0.620126 48.4677 0.413895 47.9935 0.308264 47.5082C0.227784 47.1567 0.247898 47.1679 0.695571 46.7663C0.770737 46.6778 0.817807 46.5646 0.82961 46.4437C0.841414 46.3229 0.817307 46.2011 0.760963 46.0968C0.303231 44.8696 0.408865 43.5252 0.0567628 42.2756C-0.164558 41.489 0.333414 40.7471 0.323354 40.0777C0.268023 37.6399 0.826353 35.2747 0.705633 32.8257C0.676177 30.4469 1.04456 28.0826 1.79212 25.8526C2.46614 23.6603 3.16028 21.4736 3.95 19.3314C4.98214 16.7589 6.31845 14.3502 7.92372 12.1687C9.30175 10.1527 10.8313 8.2697 12.496 6.54006C15.5895 3.34918 19.3721 2.23907 23.3709 1.60871C24.052 1.55307 24.7262 1.42036 25.3829 1.21264C27.3346 0.448388 29.0951 1.08433 30.7449 2.23349C31.7862 2.95869 31.8666 3.95166 31.082 5.2347C30.579 6.0882 29.7792 6.30018 28.919 6.63489C27.1673 7.30362 25.503 8.2265 23.9695 9.37949C21.1934 11.5677 18.8882 14.41 17.2192 17.7025C16.5502 18.9856 16.2132 20.4527 15.6599 21.825C15.1066 23.1973 14.5583 24.5696 13.4266 25.5514C12.8028 26.1093 12.8833 27.0632 12.6218 27.8218C12.4475 28.2696 12.2528 28.7071 12.0383 29.1328C11.9679 29.289 11.9779 29.5902 11.7415 29.4452C11.6976 29.4185 11.6604 29.3802 11.6332 29.3336C11.606 29.287 11.5896 29.2336 11.5856 29.1783C11.5816 29.123 11.5901 29.0674 11.6103 29.0166C11.6305 28.9658 11.6618 28.9214 11.7013 28.8873C11.0524 29.8133 10.9568 30.9569 10.65 32.0224C11.2119 31.9001 11.7406 31.6346 12.1942 31.247C13.5523 29.9696 15.2625 29.5233 16.857 28.8427C17.5512 28.5415 18.4164 28.7144 19.1507 28.3853C19.7443 28.1175 20.5088 28.257 20.7503 27.1524C20.8509 26.7006 21.8971 26.8847 22.5158 26.7731C22.5158 27.0297 22.7724 27.409 22.3146 27.4425C22.0983 27.4425 21.9525 27.5039 21.9474 27.7159C21.9474 28.0561 22.204 28.0115 22.4001 28.0394C22.5963 28.0673 22.9031 28.084 23.1446 28.1231C24.0299 28.2625 24.9554 28.19 25.7099 28.9208C26.6807 29.858 27.9734 29.116 29.0347 29.6348C29.0845 29.6547 29.1374 29.663 29.1902 29.6593C29.243 29.6556 29.2946 29.6399 29.3417 29.6133C29.3889 29.5866 29.4306 29.5495 29.4643 29.5043C29.498 29.4591 29.523 29.4067 29.5377 29.3503C29.7591 28.2346 30.4884 28.5024 31.1222 28.6586C32.6564 29.0268 33.4662 29.9138 34.1704 31.922H32.9582C32.9984 32.5579 33.6272 32.1061 33.7579 32.5245C33.7378 32.5747 33.6724 32.6584 33.6121 32.742ZM29.3718 55.8368C29.2108 55.8368 29.1806 55.9595 29.1856 56.1102C28.9794 55.1897 29.1856 54.643 30.1514 54.8885C30.5538 54.9945 30.5236 54.6374 30.6544 54.4645C31.3678 53.427 32.0165 52.3367 32.596 51.2011C33.5094 49.7939 33.9796 48.0922 33.934 46.359C33.2499 47.5193 33.431 49.1483 32.3244 50.1189C32.4837 48.7136 32.7479 47.3254 33.1141 45.9685C33.2377 45.4857 33.302 44.9866 33.3052 44.4847C33.3052 44.0384 32.7268 43.5196 32.2992 43.1403C31.0568 41.98 29.7138 40.9368 28.5267 39.7095C27.7889 38.9733 26.8621 38.5111 25.8759 38.3874C24.543 38.2648 23.2012 38.3569 21.8921 38.6608C20.3328 38.9509 19.2262 40.3343 17.8681 41.1543C17.2293 41.5448 16.2484 41.8851 15.8158 42.9004C15.6649 43.2518 16.3188 43.7706 15.6348 43.8153C15.2676 43.8153 15.2877 44.1221 15.1318 44.3285C14.0956 45.7064 13.6227 47.6756 11.8471 48.2334C12.8079 50.1022 13.6076 52.0937 15.0965 53.4827C15.9416 54.2804 16.2182 55.5523 17.1085 56.1938C18.2906 57.025 19.4475 58.0291 20.8459 58.3025C22.1688 58.5535 23.557 58.9384 24.8699 58.1742C25.2938 57.8291 25.7687 57.5686 26.2733 57.4044C26.8467 57.3263 28.8637 56.7461 29.2913 56.2887L29.5277 56.0432C29.578 55.9149 29.6836 55.7643 29.5277 55.6583C29.3717 55.5523 29.4019 55.7029 29.3718 55.8368ZM29.5931 37.3275C29.7663 37.6206 30.0009 37.8629 30.2768 38.0339C30.5526 38.2048 30.8617 38.2993 31.1775 38.3093C30.8003 37.6845 30.3325 37.5618 29.5931 37.3275ZM27.6314 29.858C28.0441 29.9926 28.4848 29.9769 28.8889 29.8134C28.3657 29.0045 28.0237 29.7464 27.6314 29.858ZM21.4193 27.978C21.6406 27.978 21.7965 27.8665 21.7412 27.6266C21.6859 27.3867 21.6959 27.0688 21.4092 27.1245C21.3015 27.1538 21.2082 27.2283 21.149 27.3324C21.0899 27.4365 21.0696 27.562 21.0923 27.6824C21.0902 27.7279 21.0978 27.7733 21.1145 27.8149C21.1311 27.8566 21.1564 27.8933 21.1883 27.9221C21.2201 27.9509 21.2576 27.971 21.2977 27.9807C21.3379 27.9904 21.3795 27.9895 21.4193 27.978ZM29.1555 29.897L29.2309 29.8134C29.1843 29.7828 29.1355 29.7567 29.085 29.7353C29.085 29.7353 29.0398 29.7855 29.0146 29.8134L29.1555 29.897ZM21.8871 27.8497C21.8619 27.8218 21.8368 27.7772 21.8116 27.7772C21.7865 27.7772 21.7613 27.8274 21.7362 27.8497L21.8519 27.9278L21.8871 27.8497Z" fill="#F89E02"/>
</svg>
