<svg width="40" height="76" viewBox="0 0 40 76" fill="none" xmlns="http://www.w3.org/2000/svg">
<path d="M38.3135 61.6375C35.9068 64.1999 33.7328 67.0029 30.8117 68.9995C26.7086 71.796 22.5444 74.3519 17.5288 74.7226C17.129 74.7329 16.7427 74.8787 16.4265 75.1388C16.0775 75.438 15.7039 75.9648 15.41 74.9762C15.2446 74.4234 14.522 74.7421 14.228 74.8462C13.0522 75.2624 12.0173 74.8462 10.9701 74.4495C10.4496 74.2609 10.1679 74.5275 9.7453 74.7161C9.22874 74.8946 8.68067 74.9458 8.1427 74.8658C7.60472 74.7858 7.09098 74.5767 6.64045 74.2544C6.54247 74.1893 6.50573 74.0267 6.43837 73.9097C6.57467 73.8227 6.71578 73.7445 6.86093 73.6755C7.18549 73.5455 7.30796 74.1633 7.86524 73.7991C6.9344 73.682 6.71394 72.1277 5.41566 73.0382C5.15233 73.2268 4.44809 72.3293 4.12352 71.783C3.13756 70.1181 2.36595 68.4597 2.58029 66.294C2.70889 64.9933 1.77803 63.7837 0.534873 63.1919C0.130692 62.9967 -0.0775143 62.7561 0.0265929 62.3724C0.1307 61.9887 0.473632 62.2358 0.706343 62.1903C0.939053 62.1448 1.53309 62.8407 1.6372 62.0472C1.7413 61.2538 1.0248 61.8001 0.761475 61.618C0.629775 61.5487 0.515509 61.4471 0.428178 61.3215C0.340848 61.196 0.282965 61.0502 0.259306 60.8961C1.75355 61.644 2.22509 60.636 2.60477 59.4913C2.86198 58.7369 3.32741 59.1337 3.67035 59.3288C5.68649 60.5164 7.99663 61.0202 10.2903 60.7725C10.3324 60.7597 10.3769 60.7597 10.4189 60.7725C12.5378 61.7676 14.2954 59.9336 16.2918 59.9141C16.8185 59.9141 17.3206 59.7515 17.8718 60.3498C16.0897 60.3498 14.6077 61.4489 12.8747 61.1237C15.1702 61.3731 17.4878 61.2592 19.7518 60.7856C20.3152 60.6685 21.093 60.6685 21.0256 59.5434C21.0256 59.2442 21.8217 58.7239 22.3178 58.5939C23.2792 58.3467 24.5408 58.1971 25.1164 57.7419C26.0779 56.981 27.6027 57.1696 28.1355 55.5437C28.6316 54.0349 29.6298 52.7212 30.3953 51.3099C30.579 50.9717 30.9097 50.5165 30.0768 50.7636C29.6359 50.8937 29.6726 50.4514 29.8502 50.3019C31.4119 49.0012 30.1809 47.6354 29.8502 46.3997C29.2502 44.5496 28.3622 42.8195 27.2231 41.2815C26.231 39.8117 24.4612 39.3889 22.9363 38.6801C22.1708 38.3029 21.2951 38.1923 20.7562 37.3208C20.4255 36.794 19.7641 37.0021 19.2925 37.1452C16.9654 37.8476 14.6567 37.1973 12.348 37.0607C12.1826 37.0607 11.7356 36.9306 11.6743 36.5079C11.6131 36.0851 11.9867 36.1112 12.1643 35.9291C12.8134 35.2787 13.438 34.5893 13.04 33.5033C12.893 33.0805 13.1686 32.8139 13.3156 32.4887C13.5177 32.0269 13.879 31.4807 13.7871 31.0644C13.4809 29.5751 14.3628 28.5215 14.8098 27.2859C14.4363 26.9022 14.1974 27.546 13.8912 27.4485C13.83 27.3834 13.7687 27.3184 13.7014 27.2599C15.7529 25.621 16.4265 23.0196 17.9392 20.9644C18.3984 20.3141 18.2882 19.5857 18.4842 18.9093C18.6802 18.233 17.835 18.9093 17.6452 18.4476C18.1132 17.3013 18.773 16.2546 19.5926 15.3584C17.8657 14.8511 16.2428 14.9032 14.6567 14.7536C12.2439 14.5194 9.91678 13.7846 7.51006 13.4529C5.00537 13.1147 3.6581 9.43369 4.90738 7.06641C5.56272 5.69771 6.54648 4.53685 7.75933 3.701C8.97219 2.86515 10.3712 2.3839 11.8152 2.30582C14.9445 2.11722 18.0371 1.42785 21.1848 1.48638C22.4567 1.39835 23.7334 1.53459 24.9633 1.8896C25.6737 2.15624 26.3596 1.66848 27.0455 1.69449C28.3805 1.74001 29.7033 0.764487 31.0383 1.65547C31.9446 0.718962 33.151 1.13519 34.2166 0.842529C33.7083 1.55141 32.9306 1.62945 32.0732 1.84407C33.5797 2.76757 35.1352 1.49288 36.7458 2.30582C35.8517 2.67652 35.1597 2.95618 34.4616 3.24233C34.0268 3.41793 33.8492 3.68457 34.1064 3.89268C34.78 4.45849 35.4353 5.14787 36.4151 4.58206C36.535 4.56467 36.6566 4.56467 36.7764 4.58206C36.4576 5.18524 36.2497 5.84738 36.164 6.53312H37.5358C37.0931 6.97383 36.8295 7.58036 36.8009 8.22403C36.4825 10.2141 35.1781 11.5603 34.1982 13.1602C30.9035 18.5581 26.6413 22.9675 22.0361 27.2338C23.1874 27.6696 24.3081 27.4875 25.3552 27.585C26.8495 27.7281 27.468 29.1134 28.6683 29.5361C28.9929 29.6662 29.2807 29.8938 29.6236 29.9978C31.5833 30.5962 32.9979 32.0334 34.4493 33.4382C34.8045 33.7764 35.0617 34.7389 35.8762 34.0235C35.9068 34.0235 36.1824 34.1536 36.1763 34.1926C35.8885 35.8445 37.2908 36.5859 37.9277 37.7045C38.4846 38.7845 38.7714 39.9982 38.7606 41.2294C38.7606 41.6197 38.0747 41.9708 38.0135 42.6277C37.9767 43.0244 37.7195 43.0049 38.2952 43.122C38.8708 43.239 38.9076 44.5397 38.436 44.7674C37.1745 45.4177 37.8787 46.4062 38.0869 46.946C38.6636 48.7021 38.9556 50.5493 38.9504 52.409C38.338 52.2334 38.8647 51.6156 38.4789 51.388C38.1788 51.6741 38.3197 52.0903 38.2094 52.4285C38.1848 52.52 38.1793 52.616 38.1934 52.7099C38.2076 52.8039 38.2409 52.8934 38.2911 52.9721C38.3413 53.0509 38.4072 53.117 38.4841 53.1658C38.561 53.2145 38.647 53.2448 38.7361 53.2545C39.1341 53.3325 39.1342 52.8512 39.1709 52.5456C39.2076 52.2399 39.1342 51.8952 39.1709 51.57C39.2689 51.1148 38.779 50.3604 39.4648 50.2693C39.7588 50.2693 40.0282 51.1018 39.9976 51.6546C39.8935 53.7422 39.7465 55.8364 39.6179 57.924H39.6486C39.6486 59.1597 38.9566 60.0897 38.4238 61.0847C38.3648 61.2536 38.3317 61.4315 38.3258 61.6115L38.3135 61.6375Z" fill="#F89E02"/>
</svg>
