<svg width="30" height="77" viewBox="0 0 30 77" fill="none" xmlns="http://www.w3.org/2000/svg">
<path d="M27.2891 51.77C26.5718 51.109 26.1401 51.0495 26.1135 52.1137C26.0671 53.9115 25.7416 55.6763 25.8612 57.5204C25.9143 58.4128 26.0139 59.781 25.4494 60.5609C24.3602 62.0746 24.5262 63.8262 24.0281 65.4323C23.7558 66.2982 22.2947 66.6551 22.9323 67.9374C22.2135 65.9898 22.2372 63.8474 22.9987 61.9159C22.2091 63.3248 21.6783 64.8625 21.4313 66.4568C20.4152 65.6372 20.7672 64.6458 20.7672 63.5618C19.2131 65.3133 19.6249 67.4219 19.1998 69.299C18.9408 70.4293 19.6182 71.6257 19.0139 72.7559C18.5224 73.6615 18.5357 73.6681 17.6856 73.0468C17.2207 74.3687 18.2767 75.4461 18.1372 76.6821C17.5395 76.6821 17.4731 76.1798 17.3336 75.8559C16.9816 74.8446 16.789 73.8201 15.2482 74.4018C14.7102 74.6001 14.4313 73.906 14.3051 73.4169C13.6929 71.1334 13.3518 68.7864 13.289 66.4238C13.2292 63.0065 13.5679 59.5629 13.289 56.1654C12.7643 49.9126 13.9531 43.7986 14.4047 37.6581C14.5641 35.6752 14.5907 33.6394 14.604 31.6234C14.604 29.0919 14.8099 26.5603 14.4047 23.9098C13.0366 24.9872 12.1201 26.448 10.6324 27.3337C8.10868 28.8341 5.61815 29.2108 3.00808 27.6906C2.86528 27.6373 2.73567 27.5541 2.62806 27.4465C2.52046 27.339 2.43737 27.2097 2.38445 27.0673C2.33152 26.925 2.31 26.773 2.32135 26.6216C2.33269 26.4703 2.37664 26.3231 2.4502 26.1902C2.61623 25.8597 2.62288 25.5821 2.34394 25.4168C2.065 25.2516 1.99194 25.6812 1.77278 25.7473C1.36101 25.8663 0.89611 26.7586 0.590605 26.0117C0.371438 25.4763 -0.472025 24.822 0.358151 24.0288C4.09727 20.4199 6.44169 15.5485 10.7852 12.4881C14.3317 9.98305 16.9418 6.42039 20.5879 4.01443C21.8498 3.1816 22.5803 1.68119 24.1809 1.21189C25.2624 0.819157 26.4306 0.725504 27.5614 0.940895C27.9304 1.01097 28.2671 1.19717 28.5218 1.47206C28.7765 1.74695 28.9357 2.09599 28.976 2.46775C28.9591 4.40162 29.2459 6.32623 29.8261 8.17197C30.384 9.72527 28.9494 11.186 29.9921 12.5939C27.5547 16.0905 29.6069 20.2017 28.4447 23.8305C27.4883 26.8313 27.9067 29.8718 27.6676 32.8925C27.475 35.2852 26.4987 37.5193 26.6116 40.0112C26.791 43.6928 26.346 47.4141 27.2758 51.0495C27.31 51.2882 27.3145 51.5302 27.2891 51.77Z" fill="#F89E02"/>
</svg>
