<svg width="32" height="32" viewBox="0 0 32 32" fill="none" xmlns="http://www.w3.org/2000/svg">
<path fill-rule="evenodd" clip-rule="evenodd" d="M16 32C24.8366 32 32 24.8366 32 16C32 7.16344 24.8366 0 16 0C7.16344 0 0 7.16344 0 16C0 24.8366 7.16344 32 16 32ZM13.5856 14.12C14.0371 14.8626 14.896 16.1676 16.1822 17.2253C17.0502 17.939 18.5172 18.7211 18.5168 18.7204C18.728 18.5236 19.605 17.7116 20.0934 17.3465C20.7487 16.857 21.34 17.5662 21.34 17.5662C21.34 17.5662 23.3357 19.5618 23.7319 20.0168C24.1279 20.4719 23.9076 20.9949 23.9076 20.9949C23.8844 21.0308 23.8613 21.0667 23.8382 21.1027C23.2469 22.0237 22.6564 22.9433 20.1718 23C17.5335 23.0025 14.8047 20.8177 12.8171 18.6379C10.8328 16.7077 8.99779 14.2145 9 11.7972C9.0572 9.31227 9.97705 8.72166 10.898 8.13031C10.934 8.10723 10.9699 8.08416 11.0058 8.06097C11.0058 8.06097 11.5292 7.84082 11.9839 8.23719C12.4386 8.63301 14.4338 10.6284 14.4338 10.6284C14.4338 10.6284 15.1428 11.2202 14.6538 11.8753C14.2709 12.3887 13.3953 13.3279 13.2551 13.4783L13.2488 13.485L13.5856 14.12Z" fill="#F89E02"/>
</svg>
