<svg width="46" height="30" viewBox="0 0 46 30" fill="none" xmlns="http://www.w3.org/2000/svg">
<path d="M45.3368 16.8956C44.9993 13.1072 44.4434 12.3694 44.2334 12.0919C43.7505 11.4506 42.9781 11.0316 42.1606 10.5919C42.1143 10.5674 42.0744 10.5326 42.0439 10.4901C42.0135 10.4476 41.9933 10.3985 41.9851 10.3469C41.9768 10.2953 41.9806 10.2424 41.9963 10.1925C42.0119 10.1426 42.039 10.097 42.0752 10.0594C42.2266 9.90584 42.343 9.72134 42.4163 9.51856C42.4896 9.31579 42.5181 9.09954 42.4999 8.88469C42.4647 8.5037 42.2875 8.14987 42.0036 7.89339C41.7197 7.6369 41.3497 7.49649 40.9671 7.5H39.5046C39.4419 7.50037 39.3793 7.50444 39.3171 7.51219C39.2744 7.49367 39.2302 7.47893 39.1849 7.46813C38.3187 5.63719 37.1327 3.13031 34.6746 1.90687C31.0287 0.0937496 24.3124 0 22.9999 0C21.6874 0 14.9712 0.0937498 11.3299 1.90406C8.87181 3.1275 7.68587 5.63438 6.81962 7.46531L6.81212 7.48031C6.76891 7.48639 6.72648 7.49708 6.68555 7.51219C6.62335 7.50444 6.56074 7.50037 6.49805 7.5H5.03274C4.65014 7.49649 4.28019 7.6369 3.99627 7.89339C3.71235 8.14987 3.53519 8.5037 3.49993 8.88469C3.48328 9.09904 3.5131 9.31446 3.58737 9.51623C3.66164 9.71799 3.77859 9.90135 3.93024 10.0538C3.96652 10.0914 3.99355 10.137 4.0092 10.1869C4.02485 10.2368 4.02869 10.2896 4.02042 10.3413C4.01215 10.3929 3.99199 10.4419 3.96153 10.4844C3.93108 10.527 3.89116 10.5618 3.84493 10.5863C3.02743 11.0287 2.25118 11.4478 1.77212 12.0863C1.56212 12.3675 1.00712 13.1016 0.66868 16.89C0.48118 19.0219 0.453055 21.2288 0.600243 22.65C0.90868 25.6031 1.48712 27.3881 1.51149 27.4622C1.60025 27.7317 1.76364 27.9705 1.98269 28.1509C2.20174 28.3313 2.46745 28.4458 2.74899 28.4812V28.5C2.74899 28.8978 2.90703 29.2794 3.18833 29.5607C3.46964 29.842 3.85117 30 4.24899 30H9.49899C9.89682 30 10.2783 29.842 10.5597 29.5607C10.841 29.2794 10.999 28.8978 10.999 28.5C11.8062 28.5 12.3677 28.3556 12.9631 28.2019C13.8225 27.9703 14.7011 27.8162 15.5881 27.7416C18.4484 27.4688 21.2927 27.375 22.9999 27.375C24.6724 27.375 27.6424 27.4688 30.5074 27.7416C31.3979 27.8164 32.2799 27.9711 33.1427 28.2038C33.7127 28.35 34.2537 28.485 35.0027 28.4991C35.0027 28.8969 35.1608 29.2784 35.4421 29.5597C35.7234 29.841 36.1049 29.9991 36.5027 29.9991H41.7527C42.1506 29.9991 42.5321 29.841 42.8134 29.5597C43.0947 29.2784 43.2527 28.8969 43.2527 28.4991V28.4878C43.535 28.4531 43.8015 28.3388 44.0212 28.1584C44.241 27.978 44.405 27.7388 44.494 27.4688C44.5184 27.3947 45.0968 25.6097 45.4052 22.6566C45.5524 21.2344 45.5262 19.0312 45.3368 16.8956ZM9.53087 8.74781C10.2809 7.15406 11.1387 5.35031 12.6659 4.59C14.8727 3.49125 19.4468 2.99625 22.9999 2.99625C26.5531 2.99625 31.1271 3.4875 33.334 4.59C34.8612 5.35031 35.7152 7.155 36.469 8.74781L36.5627 8.95125C36.6176 9.06707 36.6418 9.19499 36.6331 9.32284C36.6245 9.45068 36.5832 9.57417 36.5133 9.68153C36.4433 9.78889 36.347 9.87654 36.2336 9.93612C36.1201 9.9957 35.9933 10.0252 35.8652 10.0219C32.7499 9.9375 26.1874 9.6675 22.9999 9.6675C19.8124 9.6675 13.2499 9.94406 10.1299 10.0284C10.0018 10.0318 9.87502 10.0023 9.76158 9.94268C9.64814 9.8831 9.55186 9.79545 9.48192 9.68809C9.41197 9.58073 9.3707 9.45724 9.36204 9.3294C9.35337 9.20156 9.37761 9.07363 9.43243 8.95781C9.46524 8.88844 9.49993 8.81812 9.53087 8.74781ZM10.6493 16.2131C9.03662 16.4072 7.41362 16.503 5.7893 16.5C4.79555 16.5 3.77087 16.2188 3.58055 15.3337C3.45024 14.7384 3.4643 14.4038 3.53462 14.0672C3.59368 13.7812 3.68743 13.5731 4.15618 13.5C5.37493 13.3125 6.05649 13.5478 8.05149 14.1356C9.3743 14.5247 10.3287 15.0431 10.8724 15.4537C11.1452 15.6562 10.9999 16.185 10.6493 16.2131ZM31.4037 23.9006C30.1699 24.0413 27.7024 23.9897 23.0281 23.9897C18.3537 23.9897 15.8871 24.0413 14.6534 23.9006C13.3802 23.7591 11.7574 22.5553 12.8656 21.4828C13.6034 20.7759 15.3246 20.2472 17.6168 19.95C19.909 19.6528 20.8793 19.5 23.0187 19.5C25.1581 19.5 26.0299 19.5938 28.4206 19.9509C30.8112 20.3081 32.6177 20.8434 33.1718 21.4837C34.1824 22.6313 32.6759 23.7516 31.4037 23.9062V23.9006ZM42.4193 15.3328C42.2318 16.2216 41.2006 16.4991 40.2106 16.4991C38.5551 16.4994 36.9011 16.4037 35.2568 16.2122C34.9699 16.185 34.8368 15.6816 35.1274 15.4528C35.6627 15.0319 36.6274 14.5238 37.9484 14.1347C39.9434 13.5469 41.0937 13.3116 42.0818 13.5075C42.3227 13.5553 42.4502 13.8141 42.4652 13.9762C42.5314 14.4278 42.5158 14.8877 42.4193 15.3337V15.3328Z" fill="black"/>
</svg>
