<svg width="48" height="48" viewBox="0 0 48 48" fill="none" xmlns="http://www.w3.org/2000/svg">
  <path d="M33.6355 17.0046L21.4637 26.9536L20.891 27.4227C20.7651 27.5225 20.683 27.6672 20.6619 27.8264L20.5337 28.8846L20.1819 31.8573C20.1851 31.8934 20.1739 31.9294 20.1506 31.9573C20.1273 31.9852 20.0939 32.0027 20.0578 32.0059C20.0216 32.0092 19.9856 31.9979 19.9578 31.9747C19.9299 31.9514 19.9124 31.918 19.9091 31.8818L18.9191 28.9091L17.8964 25.8682C17.8528 25.7319 17.8584 25.5847 17.9122 25.4521C17.966 25.3195 18.0647 25.21 18.191 25.1427L30.8564 17.8827L33.24 16.5191C33.5864 16.3173 33.941 16.7536 33.6355 17.0046Z" fill="#F89E02"/>
  <path d="M24 0C19.2533 0 14.6131 1.40758 10.6663 4.04473C6.71955 6.68188 3.64341 10.4302 1.8269 14.8156C0.0103989 19.201 -0.464881 24.0266 0.461164 28.6822C1.38721 33.3377 3.67299 37.6141 7.02945 40.9706C10.3859 44.327 14.6623 46.6128 19.3178 47.5388C23.9734 48.4649 28.799 47.9896 33.1844 46.1731C37.5698 44.3566 41.3181 41.2805 43.9553 37.3337C46.5924 33.3869 48 28.7468 48 24C48 17.6348 45.4715 11.5303 40.9706 7.02944C36.4697 2.52856 30.3652 0 24 0ZM38.97 13.8927L34.2846 34.5955C34.0636 35.5664 32.8309 36.0055 31.9664 35.4136L24.8918 30.6136L21.2891 34.02C21.1422 34.1578 20.9639 34.2578 20.7696 34.3111C20.5753 34.3644 20.371 34.3695 20.1743 34.326C19.9776 34.2825 19.7945 34.1916 19.6409 34.0613C19.4873 33.931 19.3678 33.7651 19.2927 33.5782L17.9918 29.76L16.6909 25.9418L9.71728 24.0327C9.5223 23.9902 9.34684 23.8844 9.21819 23.7318C9.08954 23.5792 9.01491 23.3884 9.00589 23.189C8.99687 22.9897 9.05397 22.7929 9.16832 22.6293C9.28266 22.4658 9.44785 22.3445 9.63819 22.2845L36.5782 12.5782L37.0746 12.4009C38.1191 12.0355 39.1991 12.8809 38.97 13.8927Z" fill="#F89E02"/>
</svg>
