<svg width="124" height="140" viewBox="0 0 124 140" fill="none" xmlns="http://www.w3.org/2000/svg">
<path d="M111.219 16.4062H90.7109V12.3047C90.7109 5.51988 85.1911 0 78.4062 0H45.5938C38.8089 0 33.2891 5.51988 33.2891 12.3047V16.4062H12.7812C5.99645 16.4062 0.476562 21.9261 0.476562 28.7109C0.476562 34.16 4.03809 38.7901 8.95449 40.4034L16.2703 128.717C16.7972 135.044 22.1834 140 28.5323 140H95.4677C101.817 140 107.203 135.044 107.73 128.715L115.046 40.4031C119.962 38.7901 123.523 34.16 123.523 28.7109C123.523 21.9261 118.004 16.4062 111.219 16.4062ZM41.4922 12.3047C41.4922 10.0431 43.3321 8.20312 45.5938 8.20312H78.4062C80.6679 8.20312 82.5078 10.0431 82.5078 12.3047V16.4062H41.4922V12.3047ZM99.555 128.036C99.3792 130.145 97.5841 131.797 95.4677 131.797H28.5323C26.4162 131.797 24.6208 130.145 24.4455 128.038L17.2366 41.0156H106.763L99.555 128.036ZM111.219 32.8125H12.7812C10.5196 32.8125 8.67969 30.9725 8.67969 28.7109C8.67969 26.4493 10.5196 24.6094 12.7812 24.6094H111.219C113.48 24.6094 115.32 26.4493 115.32 28.7109C115.32 30.9725 113.48 32.8125 111.219 32.8125Z" fill="black"/>
<path d="M45.5861 119.238L41.4846 53.066C41.3443 50.8049 39.3873 49.0853 37.1372 49.2261C34.8761 49.3664 33.157 51.3127 33.297 53.5735L37.3986 119.746C37.5334 121.92 39.3392 123.593 41.4884 123.593C43.8638 123.593 45.7319 121.593 45.5861 119.238ZM62.0003 49.2184C59.7352 49.2184 57.8988 51.0548 57.8988 53.32V119.492C57.8988 121.757 59.7352 123.593 62.0003 123.593C64.2655 123.593 66.1019 121.757 66.1019 119.492V53.32C66.1019 51.0548 64.2655 49.2184 62.0003 49.2184ZM86.8632 49.2264C84.6073 49.0861 82.6558 50.8052 82.5158 53.0662L78.4142 119.238C78.2745 121.499 79.9936 123.445 82.2544 123.586C84.5165 123.726 86.4618 122.006 86.6018 119.746L90.7033 53.5737C90.8433 51.3127 89.1242 49.3664 86.8632 49.2264Z" fill="black"/>
</svg>
